<svg height="58" viewBox="0 0 145 58" width="145" xmlns="http://www.w3.org/2000/svg"><g fill-rule="evenodd"><path d="m9.34827449 18.7716733c-3.15097589 1.4004881-5.34827449 4.5578041-5.34827449 8.2283267 0 4.9705627 4.02943725 9 9 9 1.958988 0 3.7717919-.6258883 5.2493518-1.6886048-1.4195161-2.0832096-2.2493518-4.6003932-2.2493518-7.3113952 0-.6584231.0489489-1.3054136.1434061-1.9375311-2.9623427-1.1938291-5.3838759-3.4472503-6.79513161-6.2907956zm4.17740191-.7565767c.941256 1.4000487 2.2654813 2.5211513 3.8225981 3.2132301.2656147-.5351883.5670172-1.0494723.9010773-1.5397219-1.3444673-.9669914-2.966504-1.5723056-4.7236754-1.6735082zm8.4156217 7.9513467c-.3108689.0222437-.6247623.0335567-.9412981.0335567s-.6304292-.011313-.9412981-.0335567c-.0387766.3391491-.0587019.684026-.0587019 1.0335567 0 1.4876314.3609308 2.8909629 1 4.1272021.6390692-1.2362392 1-2.6395707 1-4.1272021 0-.3495307-.0199253-.6944076-.0587019-1.0335567zm-9.8825962-11.9328866c.3108689-.0222437.6247623-.0335567.9412981-.0335567 3.0170569 0 5.7940633 1.0277783 8 2.7523156 2.2059367-1.7245373 4.9829431-2.7523156 8-2.7523156.3165358 0 .6304292.011313.9412981.0335567.0387766-.3391491.0587019-.684026.0587019-1.0335567 0-4.97056275-4.0294373-9-9-9s-9 4.02943725-9 9c0 .3495307.0199253.6944076.0587019 1.0335567zm-3.91529579.9039744c-.09445725-.6321175-.14340611-1.279108-.14340611-1.9375311 0-7.17970175 5.8202983-13 13-13s13 5.82029825 13 13c0 .6584231-.0489489 1.3054136-.1434061 1.9375311 4.7739721 1.9239188 8.1434061 6.5997071 8.1434061 12.0624689 0 7.1797017-5.8202983 13-13 13-3.0170569 0-5.7940633-1.0277783-8-2.7523156-2.2059367 1.7245373-4.9829431 2.7523156-8 2.7523156-7.17970175 0-13-5.8202983-13-13 0-5.4627618 3.36943401-10.1385501 8.14340611-12.0624689zm16.50831939 6.2907956c1.5571168-.6920788 2.8813421-1.8131814 3.8225981-3.2132301-1.7571714.1012026-3.3792081.7065168-4.7236754 1.6735082.3340601.4902496.6354626 1.0045336.9010773 1.5397219zm1.2048684 3.8341422c.0944572.6321175.1434061 1.279108.1434061 1.9375311 0 2.711002-.8298357 5.2281856-2.2493518 7.3113952 1.4775599 1.0627165 3.2903638 1.6886048 5.2493518 1.6886048 4.9705627 0 9-4.0294373 9-9 0-3.6705226-2.1972986-6.8278386-5.3482745-8.2283267-1.4112557 2.8435453-3.8327889 5.0969665-6.7951316 6.2907956z" fill-rule="nonzero" transform="translate(0 9)"/><text font-family="Montserrat-Medium, Montserrat" font-size="48" font-weight="400"><tspan x="49" y="46">trex</tspan></text></g></svg>