<svg height="566" viewBox="0 0 740 566" width="740" xmlns="http://www.w3.org/2000/svg" xmlns:xlink="http://www.w3.org/1999/xlink"><linearGradient id="a" x1="100%" x2="0%" y1="50%" y2="50%"><stop offset="0" stop-color="#8c32f0"/><stop offset="1" stop-color="#e73587"/></linearGradient><g fill="none" fill-rule="evenodd"><path d="m446.009089 208.925376c0 77.577504-62.884421 140.469081-140.453097 140.469081-77.57073 0-140.455151-62.891577-140.455151-140.469081 0-77.579557 62.884421-140.4711345 140.455151-140.4711345 77.568676 0 140.453097 62.8915775 140.453097 140.4711345" fill="#245394"/><path d="m425.364488 208.925376c0 66.174966-53.64106 119.82213-119.808496 119.82213-66.16949 0-119.81055-53.647164-119.81055-119.82213 0-66.17702 53.64106-119.8241837 119.81055-119.8241837 66.167436 0 119.808496 53.6471637 119.808496 119.8241837" fill="#fffffe"/><path d="m305.691501 211.933609h-.047223c-1.287336 0-2.332399-1.045181-2.332399-2.332664v-96.166946c0-1.289537 1.045063-2.332664 2.332399-2.332664h.047223c1.287336 0 2.332398 1.043127 2.332398 2.332664v96.166946c0 1.287483-1.045062 2.332664-2.332398 2.332664" fill="#0c0a21"/><path d="m307.744669 210.872-.022585.041068c-.611844 1.133478-2.02853 1.556479-3.161879.944565l-56.995936-30.663443c-1.133348-.611913-1.556301-2.026707-.944457-3.160184l.022585-.043122c.611844-1.133477 2.026477-1.556478 3.159825-.944564l56.995936 30.665496c1.133349.611913 1.556301 2.026707.946511 3.160184" fill="#0c0a21"/><path d="m487.019062 133.733924c0 43.951003 35.626566 79.581624 79.572568 79.581624s79.570515-35.630621 79.570515-79.581624c0-43.9510025-35.624513-79.5795697-79.570515-79.5795697s-79.572568 35.6285672-79.572568 79.5795697" fill="url(#a)"/><path d="m506.279828 133.733924c0 33.314384 27.001209 60.318666 60.311802 60.318666 33.30854 0 60.311802-27.004282 60.311802-60.318666 0-33.31233-27.003262-60.3186648-60.311802-60.3186648-33.310593 0-60.311802 27.0063348-60.311802 60.3186648" fill="#fffffe"/><path d="m523.512065 133.733924c0 23.794816 19.287457 43.084468 43.079565 43.084468 23.792107 0 43.079565-19.289652 43.079565-43.084468 0-23.794815-19.287458-43.0844671-43.079565-43.0844671-23.792108 0-43.079565 19.2896521-43.079565 43.0844671" fill="url(#a)"/><path d="m536.941835 133.733924c0 16.37793 13.275782 29.65317 29.649795 29.65317 16.374012 0 29.649795-13.27524 29.649795-29.65317 0-16.375875-13.275783-29.653169-29.649795-29.653169-16.374013 0-29.649795 13.277294-29.649795 29.653169" fill="#fffffe"/><path d="m552.907267 133.733924c0 7.558571 6.126652 13.685921 13.684363 13.685921 7.55771 0 13.684363-6.12735 13.684363-13.685921 0-7.55857-6.126653-13.68592-13.684363-13.68592-7.557711 0-13.684363 6.12735-13.684363 13.68592" fill="url(#a)"/><path d="m652.356552 305.755571c15.716999-4.747464 30.883749-5.22796 35.374027-23.540193 3.554033-14.490854-9.927066-26.226043 1.045062-37.158352 6.600934-6.579098 17.657243-11.336829 19.067769-21.455991 1.470068-10.542162-12.372389-15.536034-11.138435-25.630555 1.018371-8.34297 12.22456-10.168444 8.077162-20.406703-3.679277-9.082195-12.199923-10.505202-18.544211-7.883008-8.483689 3.505156-8.294798 11.614038-13.479046 17.848165-3.459588 4.162244-9.389136 1.053394-15.16675 1.018487-5.755029-.034908-12.963701 1.301856-17.48683 4.355264-14.686309 9.915875-.205317 25.714745-1.441324 40.061861-1.194943 13.870726-21.217435 7.856313-29.916706 19.164395-10.161128 13.209531.876702 32.784606 13.335324 41.197391 8.298904 5.603733 19.650868 15.638705 30.273958 12.429239" fill="#b4b8c3"/><path d="m636.462981 303.981432.266911.069816c.533824.063655 1.03685-.305957 1.123083-.819307.065702-.375773 6.524967-36.476622 29.329501-62.370014 12.838458-14.572989 14.717106-28.326672 16.183068-39.076228.856171-6.271088 1.587099-11.609931 4.311652-14.766009.217636-.254622.139616-.710477-.178625-1.018487-.328507-.322384-.757619-.351132-.977308-.100617-2.942189 3.381952-3.701861 8.885068-4.597043 15.353282-1.465961 10.607872-3.342557 24.184962-16.018814 38.462261-23.282922 26.230149-29.910548 62.910058-29.976249 63.289937-.073914.423001.156041.815201.533824.975366" fill="#fffffe"/><path d="m666.038862 239.968698c.361357.209447.796629.149898 1.020424-.156059.24638-.334704.145775-.841894-.227902-1.133477-5.724231-4.484629-10.183711-13.880994-7.535125-20.42313.312081-.772079.685758-1.595493 1.073807-2.457922 1.845797-4.076001 4.098122-9.059607 2.131188-13.439512-.964989-2.143751-2.876488-3.965118-5.654424-5.42714-.435272-.227927-.901341-.10883-1.045063.264889-.141668.373719.088287.829574.529718 1.088303 2.3981 1.254628 3.923603 2.685849 4.707913 4.41892 1.675385 3.733083-.457856 8.412785-2.200995 12.238272-.402421.880909-.782257 1.724857-1.106658 2.509256-3.044848 7.462061 1.950509 17.573009 8.202405 22.445731z" fill="#fffffe"/><path d="m670.364886 242.728469c2.921658 1.61808 5.666743 2.199193 8.188033 1.749498 3.907178-.694049 7.173768-3.911729 9.471263-9.232092.223795-.517458.468122-1.127318.732981-1.794673 1.494706-3.741297 3.71418-9.297802 7.108066-10.174604 1.106658-.283369 2.250272-.045175 3.494492.724851.349038.213553.743246.11499.876702-.223821.133456-.334704-.03285-.778239-.373676-.9959l-.008213-.004107c-1.57478-.977419-3.104389-1.293642-4.547766-.928137-3.937976.997953-6.305278 6.876841-7.898537 10.837852-.264858.652982-.507132 1.252575-.728874 1.763872-2.141454 4.922003-5.098016 7.874795-8.569922 8.476441-3.032529.523617-6.500329-.728957-10.29869-3.743351-.383942-.310063-.874649-.260782-1.125135.069816-.248434.334705-.153988.843948.215582 1.137584 1.180572.934298 2.334452 1.712537 3.463694 2.336771" fill="#fffffe"/><path d="m636.263823 286.917667c1.084073.496923 2.229741.804933 3.426737.870642.525611.026694.979361-.355239 1.012212-.858322.032851-.50103-.344932-.930191-.886968-.963045-6.264215-.367559-11.448464-9.75571-12.559227-14.897427-.45991-2.135538-.024638-4.895309.439377-7.796765.808949-5.12529 1.642535-10.369677-2.283122-13.659226-.41474-.379879-1.047116-.351132-1.40026.002053-.359305.357292-.314135.928138.106764 1.275163 3.118762 2.603713 2.350877 7.381978 1.603524 12.041145-.49276 3.073942-.962935 5.997986-.431165 8.460014.995786 4.634527 5.065165 12.821438 10.972128 15.525768" fill="#fffffe"/><path d="m644.043276 290.086065c1.063541.48871 2.240006.79672 3.521183.926084 7.005408.70637 15.248876-4.197152 19.006173-7.560624 1.964882-1.765925 3.523236-4.84808 5.151398-8.067814 2.539768-5.020566 5.108281-10.108895 9.097586-9.96105.422953.016427.753513-.330597.737087-.772079-.016425-.441481-.377782-.80904-.798682-.831627-4.917337-.201234-7.847207 5.556504-10.491687 10.749556-1.56862 3.088316-3.073592 6.037-4.822891 7.591425-3.410312 3.03082-11.298582 7.726949-17.671615 7.061647-2.531555-.266942-4.553926-1.377832-5.974718-3.299816-.301815-.400413-.891074-.50103-1.32224-.2115-.427059.295689-.529717.862428-.225848 1.273109 1.03069 1.379885 2.301601 2.418906 3.794254 3.102689" fill="#fffffe"/><path d="m143.747897 472.11599c-13.774703-8.870694-49.1774738-16.250619-46.2229654-36.940691 2.5110244-17.59765 36.1911874-24.969361 26.9047094-42.731282-5.492223-10.505202-11.228774-19.176716-7.582348-33.89755 3.970826-16.037065 29.555349-15.094554 34.088744-30.221962 3.892806-12.993924-9.978395-27.492991 2.393993-38.914009 10.984448-10.139696 30.060429-1.706377 35.548546 8.973364 6.865793 13.353269-5.293066 23.94882-3.634107 36.782579 1.057382 8.170484 8.972343 8.897388 14.610342 13.244439 5.397778 4.162244 11.043989 10.739289 13.132061 17.184916 6.276533 19.367681-14.474833 27.926258-21.155841 43.234365-6.188247 14.176684 13.275783 16.733168 14.189443 30.004301.987573 14.320421-16.201547 27.117219-29.816102 30.720938-9.442518 2.501043-23.921457 8.057547-32.456475 2.560592" fill="#245394"/><path d="m159.222622 474.734076-.268965-.008213c-.49892-.082136-.780204-.521564-.626216-.975366.106764-.332651 11.183604-34.527944 2.129134-71.053847-6.040419-24.349234-.342879-42.612186 4.330131-57.595855 2.823106-9.04934 5.282801-16.940562 4.069379-23.817403-.096499-.562632.283337-1.129371.856171-1.262842.591312-.145791 1.116923.215607 1.215475.774133 1.285283 7.369657-1.254486 15.478539-4.165877 24.77634-4.613468 14.731102-10.245307 32.698364-4.367088 56.558888 9.107852 36.987919-2.153773 71.585678-2.266697 71.920383-.12319.373719-.500973.644768-.905447.683782" fill="#fffffe"/><path d="m162.121695 402.331144c-.486601.036961-.907501-.262835-.977308-.71869-.080074-.50103.297709-1.004114.841798-1.123211 8.253735-1.792619 17.766061-9.579117 18.823442-18.410797.127297-1.061608.225849-2.225887.328507-3.449714.49276-5.868621 1.11487-13.234172 5.656477-17.098673 2.221528-1.887076 5.173983-2.718704 8.719803-2.513363.550249.034907.923926.50103.83564 1.039021-.086233.540044-.574887.91787-1.145668.919924-3.044848-.176593-5.375193.462015-7.165555 1.979478-3.84969 3.275176-4.438949 10.164337-4.909124 15.653079-.106765 1.246415-.211477 2.431227-.338773 3.511316-1.215475 10.022653-11.577813 18.246525-20.521411 20.189043z" fill="#fffffe"/><path d="m156.105913 403.035461c-4.00573.209447-7.329809-.638608-9.910641-2.548271-4.100175-3.026714-6.210832-8.72901-6.075323-16.542202.012319-.774132.051329-1.677629.096499-2.667368.24638-5.624266.624163-14.211591-3.145453-17.862539-1.250379-1.21356-2.860063-1.774138-4.915283-1.718697-.576941.014374-1.03685-.420947-1.022478-.973312.012319-.548258.484548-1.00822 1.057381-1.030807h.010266c2.61163-.067763 4.761296.70021 6.391511 2.281329 4.352716 4.230006 3.940029 13.316307 3.666958 19.262958-.041063.967152-.082127 1.852168-.096499 2.61398-.133456 7.223866 1.722608 12.439505 5.352608 15.125354 3.096177 2.291596 7.537179 2.798786 13.177231 1.535945.568727-.131418 1.053275.190966 1.139508.687889.080073.503083-.289497 1.010273-.833586 1.131424-1.730821.390146-3.361036.624234-4.892699.704317" fill="#fffffe"/><path d="m167.162221 460.195995c-1.184677.110883-2.342664.039014-3.441109-.262836-.484547-.133471-.714502-.607806-.509185-1.063662.203263-.453801.745299-.71869 1.244219-.581112 5.681115 1.566745 14.493311-5.014406 17.862559-9.156117 1.40642-1.731017 2.377569-4.320356 3.404153-7.071914 1.845797-4.91995 3.761403-10.041133 8.63357-11.556543.529717-.188913 1.02453.080083 1.131295.542098.110871.462015-.213529.965099-.724768 1.12321-3.839424 1.197133-5.578457 5.827554-7.249735 10.275221-1.088179 2.897349-2.11271 5.624266-3.7265 7.605799-3.022263 3.714603-10.269945 9.552423-16.624499 10.145856" fill="#fffffe"/><path d="m158.70933 460.653903c-1.20521.110884-2.439163.030801-3.693649-.242301-7.032099-1.535944-12.998605-8.852213-15.308419-13.441565-1.236006-2.466136-1.422845-6.12735-1.622002-10.026759-.318241-6.23002-.646748-12.733142-5.241737-14.449786-.494814-.184806-.702184-.71869-.461963-1.190973.238167-.470229.841799-.694049 1.336612-.515403 5.652371 2.121163 6.017835 9.490821 6.334023 15.924127.180678 3.733084.355198 7.23824 1.447483 9.414846 2.081912 4.156084 7.748655 11.207464 14.150432 12.611991 2.48228.544151 4.855742.172485 7.042365-1.100623.45991-.260782 1.038903-.168379 1.293496.221767.244327.394253.071861.926084-.390102 1.19508-1.570673.907603-3.204995 1.441487-4.886539 1.599599" fill="#fffffe"/><path d="m630.47389 411.037566c-5.89875-8.788558-25.009636-22.230123-17.963164-33.745598 5.99525-9.794725 27.859433-5.546237 26.896497-18.458025-.568727-7.638653-1.751352-14.250606 4.18025-22.049424 6.459265-8.496975 21.394007-1.386046 27.953878-9.199238 5.635946-6.710516 1.118977-18.862545 11.382762-22.470371 9.109905-3.201253 18.267033 6.683821 18.788538 14.425144.65496 9.677681-9.270052 12.850186-11.5696 20.887199-1.465962 5.117076 3.042794 7.574998 5.274588 11.595558 2.137347 3.850127 3.802466 9.199238 3.391833 13.556555-1.233954 13.094541-15.733425 12.8584-23.615535 20.228057-7.299012 6.825506 3.593043 13.324522.73914 21.43135-3.081805 8.74749-16.552638 11.936423-25.551672 10.589391-6.239577-.934297-16.250823-1.344978-19.907515-6.790598" fill="#0c0a21"/><path d="m638.984271 416.553002-.158094-.073922c-.275125-.176593-.33056-.509244-.12319-.739225.149881-.170432 15.472672-17.618184 19.451711-41.601912 2.648586-15.989836 10.703163-25.363613 17.310257-33.055655 3.991358-4.644794 7.469424-8.696155 8.51038-13.086327.086233-.357292.455803-.59754.82948-.529777.388048.065708.607737.414787.523557.770025-1.123082 4.700236-4.70586 8.860427-8.812195 13.630478-6.508542 7.556517-14.446088 16.772183-17.067984 32.431422-4.063219 24.271204-19.599539 41.909922-19.753526 42.080354-.16836.190966-.461963.254622-.710396.174539" fill="#fffffe"/><path d="m659.234664 374.34739c-.297709-.10267-.470176-.388093-.396261-.677622.082126-.316224.435271-.519511.788416-.449695 5.352608 1.049288 12.988339-1.133478 15.877146-6.100656.346985-.597539.704236-1.262841 1.077913-1.963051 1.794469-3.355258 4.048847-7.564731 7.730176-8.694102 1.802682-.550311 3.767563-.287476 5.816625.741278.318241.162219.420899.533885.229954.831628-.188891.29569-.57694.396306-.915712.250515-1.759565-.885016-3.3056-1.102677-4.75719-.659142-3.120815.956885-5.233525 4.891202-6.917122 8.026746-.381889.71253-.747353 1.390153-1.100498 1.995906-3.285068 5.634533-11.536749 7.86042-17.339001 6.722836z" fill="#fffffe"/><path d="m655.487633 373.22418c-2.430951-.901444-4.184356-2.254635-5.227365-4.049308-1.656907-2.843961-1.449537-6.765957.630322-11.36763.205317-.453801.45991-.981526.739141-1.556478 1.585045-3.273122 4.007783-8.271101 2.708128-11.400484-.433219-1.039022-1.24422-1.784406-2.478174-2.277223-.344932-.139631-.507132-.515403-.357251-.839841.149881-.32033.546143-.474335.891075-.340864l.008213.004106c1.564513.626288 2.64448 1.632455 3.204995 2.987699 1.500865 3.624254-1.069701 8.907656-2.753298 12.365583-.273072.562632-.523558 1.078036-.726822 1.525678-1.927924 4.250541-2.161985 7.819352-.696024 10.342982 1.250379 2.149912 3.753191 3.589346 7.422202 4.285449.371623.065709.57694.381933.498919.698157-.080073.318277-.429112.523617-.782256.457908-1.12719-.213554-2.153773-.490763-3.081805-.835734" fill="#fffffe"/><path d="m647.414577 409.961584c-.730927-.238195-1.40026-.577006-1.973094-1.036968-.254593-.203287-.268965-.544151-.030797-.761812.236114-.217661.624163-.234088.886968-.024641 2.968881 2.381946 9.879843.735118 12.939063-.858322 1.27707-.667355 2.517184-1.954838 3.829158-3.324456 2.35293-2.445601 4.800306-4.991819 8.079215-4.644794.361357.022587.587206.310063.53177.611913-.053382.30185-.373676.517457-.716555.480496-2.584938-.273102-4.800306 2.028761-6.931494 4.238221-1.385889 1.441487-2.691703 2.796732-4.155612 3.558544-2.745085 1.429168-8.537071 3.036981-12.458622 1.761819" fill="#fffffe"/><path d="m642.283711 408.068348c-.7453-.242302-1.455696-.605754-2.131188-1.088303-3.777829-2.712543-5.442948-8.579111-5.637999-11.893301-.102658-1.778246.724769-3.997972 1.603524-6.363491 1.40642-3.776205 2.874435-7.716682.58926-9.911768-.246381-.236141-.232008-.605754.030797-.825468.260752-.21766.677545-.195073.923926.036962 2.810786 2.706383 1.141561 7.170477-.318241 11.067833-.847959 2.260795-1.640481 4.384012-1.550142 5.954864.170413 2.997966 1.726714 8.630446 5.16577 11.102741 1.332506.958939 2.835425 1.347032 4.45948 1.151958.338773-.036961.659067.166326.708343.462016.04517.29569-.192998.566739-.535877.607807-1.164146.137577-2.270803.034907-3.307653-.30185" fill="#fffffe"/><path d="m372.836245 355.250757c14.782807-1.449701 26.551565-2.993859 29.05643-18.071985 1.297602-7.800872-1.408474-13.708508-9.031885-19.248584-6.16361-4.480522-9.415827-6.184845-9.943492-13.336842-.845905-11.441553 6.093802-21.593569.669333-33.328758-6.048632-13.092487-24.418324-10.193084-30.95561-22.217803-5.863847-10.786517-8.019673-23.979621-23.428697-26.035076-12.967807-1.731017-20.213436 11.022659-16.03524 21.209583 2.350878 5.733097 7.270267 10.246473 8.664368 16.221871 1.3284 5.700242-1.632268 9.772137-4.424576 14.396397-6.169769 10.215672-8.918961 21.271185 2.525396 30.279456 6.839102 5.381965 12.043882 9.991852 8.181874 17.661306-4.05706 8.061653-6.026048 12.710554 3.332291 20.581242 6.995142 5.882994 14.060092 6.515442 22.835331 8.166377 8.22499 1.546211 18.952791 5.423033 27.286599 2.973325z" fill="#b4b8c3"/><path d="m369.343807 346.733249c1.404366-1.186866 2.420684-2.49283 3.036635-3.90557 2.64448-6.094495-2.463802-13.326575-7.093695-19.881032-2.334452-3.299816-4.560085-6.45384-5.45116-8.998005-2.435057-6.930229-2.60547-12.823491-.581047-21.72704 2.408366-10.556536.17452-15.345068-7.5187-23.675717-6.479797-7.030847-12.791235-14.653073-13.891733-21.453938-.082126-.529777-.689864-.895283-1.353037-.819307-.66112.071869-1.133349.562632-1.045063 1.090356 1.182625 7.236187 7.719911 15.09866 14.415291 22.31842 7.452999 8.022639 9.491794 12.347102 7.223044 22.394395-1.716448 7.589371-2.242059 14.30194.663173 22.499119.956776 2.712543 3.252218 5.938437 5.648265 9.312175 4.480012 6.293675 9.428146 13.248546 7.060843 18.704433-.909553 2.10679-2.847743 3.874768-5.925442 5.408659-.505079.264889-.73298.745385-.4866 1.09241.244327.347025.858224.420947 1.369463.164272 1.537822-.770026 2.849796-1.61192 3.929763-2.52363" fill="#fffffe"/><path d="m357.36152 302.268895c.170413-.141684.29155-.318277.332613-.515403.088286-.470229-.322347-.872696-.921872-.895283-5.243791-.18686-8.473424-4.770052-11.95149-9.708482-3.081804-4.371692-6.317597-8.963097-11.390974-10.825532-.574887-.2115-1.301709-.010267-1.599418.445588-.310028.459962-.092392 1.000006.486601 1.211507 4.447161 1.622187 7.537179 5.973344 10.475262 10.117108 3.613575 5.090382 7.274373 10.25674 13.647405 10.474401.351092.010267.685758-.110884.921873-.303904" fill="#fffffe"/><path d="m359.572781 316.014364.234061-.275156c.691918-1.201239 1.059435-2.260795 1.416686-3.291602.574887-1.657095 1.07586-3.094476 2.85185-4.749517.942404-.876803 1.958722-1.609867 2.94219-2.318291 2.063433-1.50925 4.196674-3.041087 5.459373-5.819339 1.802681-3.973332 2.47612-9.143796 1.993625-15.421044-.067754-.874749-.336719-2.125271-.620056-3.457928-.406527-1.915824-1.172359-5.505169-.642642-6.203326.318241-.418894.217636-.965098-.262805-1.2074-.472229-.242301-1.123083-.145791-1.465962.250515-1.051222 1.170439-.605684 3.669428.24638 7.603745.277178 1.28543.535877 2.49899.601578 3.283389.33056 4.168405.275125 10.073987-1.845798 14.749582-1.051221 2.336771-2.788201 3.589346-4.808518 5.047261-1.038903.749491-2.114763 1.533891-3.170091 2.507203-2.147614 1.991799-2.761511 3.778258-3.358983 5.501062-.33056.960992-.673439 1.956892-1.291442 3.026714-.25254.437374-.018479.907603.523558 1.045181.40858.104724.884915-.014374 1.196996-.271049" fill="#fffffe"/><path d="m633.323687 491.532953c-14.023135-8.195125-24.804319-15.012417-21.494613-32.488916 1.675385-8.85016 6.389458-14.006251 15.58765-16.813251 7.446839-2.271062 11.150754-2.780305 14.131953-10.039079 4.703807-11.447713 1.589152-24.240403 10.54507-33.916031 9.87163-10.663313 26.381152-1.398366 36.314377-10.930255 8.824515-8.466174 14.682202-20.373848 30.173353-17.223931 13.244985 2.692009 17.123419 17.716747 10.152914 26.423169-3.956454 4.940484-10.187818 7.720789-13.290154 13.306041-2.983253 5.373751-1.153881 10.733129.361357 16.669512 3.412365 13.363536 3.057167 26.566907-11.637354 31.706571-8.775239 3.067781-15.614341 5.973344-14.072412 16.250618 1.650747 11.010338 2.223581 17.291693-10.245307 22.170575-9.321381 3.646841-16.874986 1.119104-26.467385-.98974-8.906642-1.956891-21.086033-2.361411-28.424054-8.866587z" fill="#245394"/><path d="m639.912302 483.417911c-.969095-1.952785-1.504972-3.866555-1.603524-5.71667-.414739-7.905595 7.177875-13.69824 14.025189-18.922093 3.441109-2.618087 6.717965-5.11913 8.459051-7.503129 4.722286-6.45384 6.832942-12.655112 7.748655-22.798915 1.057382-11.802951 4.744871-15.846099 14.819765-21.443671 8.469317-4.716663 16.924261-10.071933 19.983481-16.435424.236115-.495264.936245-.642715 1.564514-.334705.628269.305957.95267.956885.714502 1.449702-3.264536 6.786491-12.025403 12.318354-20.78011 17.156168-9.766919 5.390179-13.121795 9.045233-14.1299 20.295819-.774045 8.648927-2.451483 16.004211-8.060737 23.642864-1.864276 2.548271-5.237631 5.104755-8.771132 7.784444-6.619413 5.018513-13.965647 10.587338-13.583758 17.681839.145775 2.761825 1.439271 5.609893 3.970826 8.714636.410634.525671.468123 1.174545.094446 1.459968-.371623.287476-1.012212.09651-1.435164-.425054-1.262698-1.560585-2.268751-3.096529-3.016104-4.605779" fill="#fffffe"/><path d="m667.120881 439.779025c-.12319-.217661-.182732-.451748-.158094-.677623.067755-.533884.603631-.796719 1.201103-.583166 5.254057 1.891183 9.943492-1.692002 14.975806-5.538023 4.445108-3.394272 9.099639-6.946657 14.758169-6.932327.644695.002097 1.314028.494914 1.478281 1.0904.172466.601647-.209423 1.086249-.858224 1.082143-4.970719-.028748-9.411721 3.342937-13.649459 6.560617-5.225312 3.967171-10.540963 8.010319-16.936581 5.689975-.349038-.131418-.642641-.392199-.811001-.691996" fill="#fffffe"/><path d="m660.357747 453.616897-.141669-.394253c-.279231-1.583173-.28539-2.874762-.29155-4.12939-.008212-2.012334-.020531-3.751565-1.211369-6.23002-.628269-1.30391-1.375622-2.486669-2.098337-3.626307-1.500866-2.404533-3.055114-4.846027-3.340504-8.236193-.404474-4.809066.675492-10.373784 3.211154-16.579163.351092-.862428 1.016318-2.026707 1.722608-3.262854 1.010159-1.780299 2.903179-5.098596 2.626002-5.987719-.16836-.533884.102658-1.041074.636482-1.108837.527664-.071869 1.11487.258729 1.314027.77824.624163 1.550318-.605685 3.893249-2.693756 7.548303-.683705 1.19508-1.3284 2.328557-1.646641 3.100636-1.687704 4.121177-3.59099 10.203352-3.108496 15.864579.238168 2.850121 1.502919 4.843974 2.985306 7.174584.763779 1.203294 1.556301 2.464082 2.266697 3.91789 1.447484 2.985646 1.457749 5.145824 1.470068 7.240294.00616 1.172492.014373 2.388105.266912 3.800845.104712.577006-.287443.98974-.872596.915817-.441431-.055441-.872596-.379879-1.094338-.786452" fill="#fffffe"/><path d="m382.531303 329.308085c-16.043453-2.544165-28.56367-4.981552-31.8241-22.466265-1.6528-8.854267.866437-15.371762 8.417988-21.326626 6.114333-4.821387 9.380923-6.638647 9.524645-14.484694.225848-12.377903-7.321596-23.164421-2.488439-35.43144 5.325917-13.521648 24.071338-10.883028 29.86743-23.371815 5.147292-11.094527 6.282694-24.314325 21.858024-27.006335 13.318899-2.299809 22.389794 10.291648 19.053397 20.932374-1.890968 6.041107-6.689221 10.893294-7.551551 17.225984-.827427 6.088335 2.821052 10.418959 6.389458 15.40051 8.031992 11.211572 12.495578 23.642864.667279 33.768186-7.060844 6.045214-12.378548 11.234159-7.210725 20.250644 5.53534 9.661254 8.350233 15.306054-1.496759 24.380035-7.360606 6.782384-15.318685 7.168424-25.019902 8.687941-9.0093 1.410687-20.504986 5.457941-29.703178 2.059561z" fill="#0c0a21"/><path d="m385.721926 319.355248c-1.611737-1.470235-2.806681-3.057514-3.570459-4.74541-3.256324-7.215653 1.714395-15.36971 6.198513-22.72294 2.256432-3.689962 4.399939-7.211546 5.157558-10.06372 2.057274-7.729003 1.771883-14.273193-1.057382-24.057651-3.29944-11.37995-1.330453-16.486759 6.023994-25.36156 6.177982-7.470274 12.111637-15.529874 12.653673-22.570988.036957-.546205.636482-.936351 1.334559-.878856.696024.055442 1.233954.546205 1.190837 1.09241-.57694 7.507235-6.732337 15.841992-13.132061 23.529926-7.14297 8.568844-8.941545 13.191051-5.798145 24.041224 2.420685 8.338863 3.527342 15.800923 1.073807 24.95704-.811002 3.051354-3.02637 6.657127-5.346449 10.439492-4.346556 7.078075-9.169447 14.934389-6.237524 21.40671 1.139508 2.519523 3.379514 4.704342 6.86374 6.677661.572834.340865.86233.924031.620057 1.326497-.242274.400413-.909554.457909-1.492653.125258-1.74314-.9959-3.237846-2.061615-4.482065-3.195093" fill="#fffffe"/><path d="m395.230145 268.812827c-.192998-.158112-.334666-.355239-.394208-.574953-.12935-.521564.275125-.960991.909553-.979472 5.58051-.145792 8.647943-5.186892 11.943277-10.597605 2.907285-4.776211 5.954186-9.778297 11.230827-11.817324.601579-.234088 1.40642-.016428 1.773937.478442.38189.496923.199158 1.088303-.404474 1.318284-4.644265 1.780299-7.55771 6.53187-10.337699 11.069887-3.42879 5.595518-6.913016 11.291654-13.715161 11.452018-.373676.005961-.73914-.131617-1.006052-.349277" fill="#fffffe"/><path d="m393.951022 284.162002-.273072-.316224c-.835639-1.373725-1.309921-2.574965-1.771883-3.741297-.739141-1.872702-1.381782-3.488729-3.38978-5.365538-1.059435-.987686-2.186624-1.81726-3.27275-2.616033-2.270803-1.69611-4.605255-3.406593-6.102014-6.462054-2.122975-4.332677-3.13724-9.909715-3.028422-16.614071.016425-.930191.213529-2.256688.420899-3.665321.295656-2.024654.854118-5.804966.273071-6.53187-.349038-.435321-.281284-1.006167.190945-1.264895.466069-.258729 1.133348-.162219 1.507025.248461 1.143614 1.217667.850011 3.848075.229955 8.010319-.203264 1.363459-.392155 2.652995-.408581 3.488729-.075967 4.451774.359305 10.811158 2.864169 15.909754 1.256539 2.568805 3.159825 3.967171 5.387512 5.601679 1.147721.843948 2.342665 1.728964 3.533502 2.827533 2.433004 2.254635 3.225527 4.264915 3.999571 6.21154.429112 1.090356.876702 2.219726 1.626109 3.443554.307975.50103.092392 1.0267-.480442 1.170438-.431165.110884-.950616-.036961-1.305814-.334704" fill="#fffffe"/><path d="m102.280068 497.982687c-20.0656081-.685836-38.1437499 3.501049-49.1897923-16.737275-8.740335-16.014477 3.5150231-34.10905-12.877468-43.591658-9.8654709-5.706402-24.4244832-7.864527-29.2617464-19.382055-5.03847356-12.000078 9.7545999-22.242444 5.1349725-33.786666-3.818892-9.540103-17.63671074-8.186911-15.94284736-21.587409 1.5008656-11.889194 11.12611586-16.240351 19.44760466-15.129461 11.1261159 1.482556 13.4441423 11.125329 21.5233573 16.870746 5.3936716 3.8337 11.4279315-1.698163 18.2485547-3.550331 6.7898257-1.846008 15.7293179-2.525684 22.0325428-.334705 20.4659761 7.117089 8.3009572 30.330792 14.2571967 46.901741 5.7591354 16.020637 27.5391384 2.634514 41.3651704 13.273186 16.148164 12.427185 9.237201 39.024893-2.849797 52.873032-8.054577 9.225933-18.328628 24.644923-31.887748 24.180855" fill="#b4b8c3"/><path d="m120.510144 490.904612-.295656.166326c-.611844.240248-1.320187-.039015-1.582992-.618074-.197104-.420947-19.1437361-41.068027-54.2118408-64.524031-19.7412077-13.201318-26.270281-28.870824-31.3724028-41.115256-2.9770932-7.143783-5.5127554-13.225958-9.7238024-16.10072-.3367195-.234088-.3880487-.794666-.1088178-1.260789.2874434-.482549.7863632-.652981 1.1251359-.425054 4.5354475 3.073942 7.1593958 9.340923 10.2432537 16.704421 5.0590053 12.08016 11.5285368 27.538165 30.9884605 40.441739 35.7374377 23.704466 55.0639047 64.98194 55.2610097 65.411101.219689.476389.07186 1.012327-.322348 1.320337" fill="#fffffe"/><path d="m65.4914088 424.511986c-.3593044.361398-.893128.429161-1.2544855.137578-.3962614-.318278-.4373247-.950725-.0862331-1.412741 5.3587678-7.094501 7.6850068-19.597662 2.5048647-26.499144-.6097909-.815201-1.3078679-1.673522-2.0387956-2.570859-3.4575344-4.23822-7.6829536-9.423059-6.7282306-15.215704.4681222-2.835747 2.1558261-5.587305 4.9809849-8.186911.4434842-.406574 1.0327433-.412734 1.3181337-.014374.2833371.39836.1560407 1.00822-.2833372 1.451755-2.4432696 2.234101-3.7983603 4.404546-4.1802495 6.698195-.8130544 4.93843 3.1783037 9.800885 6.4366808 13.778323.7494063.91171 1.4639086 1.790566 2.0921779 2.616034 5.9377611 7.86658 3.2029417 21.382068-2.6588522 29.100804z" fill="#fffffe"/><path d="m61.2434047 429.132139c-2.9483488 2.827533-6.0075687 4.375798-9.1283837 4.632473-4.8372631.40452-9.7053238-2.373732-14.0888369-7.940503-.4270589-.542098-.9075001-1.188919-1.4290047-1.893236-2.9401362-3.952798-7.3051708-9.825525-11.5901318-9.796778-1.3961541.010267-2.6732244.650928-3.905125 1.950731-.342879.361399-.8397456.367559-1.1046043.010268-.2628054-.353186-.2053167-.930191.1314028-1.293643l.0061595-.008214c1.5563011-1.648881 3.2645366-2.501043 5.0836433-2.52363 4.9686658-.055442 9.6088249 6.15199 12.7337462 10.334769.5173982.689943.99168 1.32239 1.4125794 1.856275 4.0755379 5.147877 8.496008 7.710522 12.7871286 7.334749 3.7470311-.330597 7.4529988-2.899402 10.9988195-7.65508.3572511-.484603.9526698-.581113 1.3530375-.268996.3983145.318278.4455374.948672.1006052 1.412741-1.1025511 1.474342-2.2235806 2.755664-3.3610356 3.848074" fill="#fffffe"/><path d="m115.395703 470.674502c-1.125135.926084-2.381674 1.648881-3.777828 2.10063-.611844.197126-1.266805-.110884-1.463909-.696104-.197104-.583166.117031-1.2074.7453-1.416846 7.290799-2.39632 10.477315-15.121248 10.177553-21.542234-.125244-2.671475-1.504972-5.794699-2.962721-9.080141-2.562354-5.804966-5.190408-11.743403-1.582993-16.858425.373677-.581113 1.127189-.745385 1.656907-.437375.53793.310064.66112.997953.273071 1.540051-2.870329 4.055468-.464016 9.46002 1.876595 14.735208 1.548089 3.478462 3.018157 6.786492 3.161878 9.862487.275125 5.790592-1.966934 16.743435-8.103853 21.792749" fill="#fffffe"/><path d="m107.193298 476.857293c-1.104604.909657-2.396046 1.642722-3.870221 2.19714-8.0607362 3.028767-19.3387866-.180699-24.8330634-2.979485-2.8785411-1.470236-5.6852214-4.62426-8.6191981-7.91997-4.5744577-5.139663-9.2064041-10.347089-13.8712011-8.922029-.4968666.151952-.9957864-.154005-1.1169233-.683782-.1190837-.523618.1971041-1.073929.685758-1.232041 5.7488697-1.778246 11.0152449 4.106803 15.7683282 9.416899 2.8231056 3.158131 5.5250743 6.172524 8.079215 7.46206 4.983038 2.513364 15.7785939 5.591412 23.1001897 2.807 2.909339-1.108837 4.950188-3.055461 6.028101-5.772111.232008-.568792.895181-.872696 1.496759-.665302.597472.215607.897234.854215.665226 1.433274-.78431 1.954838-1.962828 3.581132-3.51297 4.858347" fill="#fffffe"/><path d="m656.358176 217.136928h-218.366707v56.760121h-88.360126v56.76012h-88.358073v56.760121h-88.360126v56.760121h-88.3601261v71.735577h571.8051581z" fill="url(#a)"/><path d="m533.147581 96.6166413 1.689757 4.1581377 2.872381-1.2833758c.164254.0369612 2.476121-.0533884 3.412365-.2443548.934192-.1889129 1.667172-.8316275 1.971041-1.0164336.338773-.2053402.909554-.8603752.400368-1.0143803-.445537-.1355245-.95267.4825493-1.246273.6037-.29155.1232041-1.314027.1252575-1.314027.1252575s.381889-.1765925 1.129242-.4743357c.909553-.3634521 2.246166-.8932296 2.517184-1.1622252.256646-.2566752.195051-.813147-.50508-.6796759-.845905.1601653-1.624055.552365-1.765724.593433l-1.476227.5256708s1.149773-.4394279 1.558354-.624234c.459909-.209447 1.722608-.7063701 2.52129-1.063662.771991-.3449714.599525-1.2135602-.108818-1.1642785-.525611.0390146-2.291335.9938462-2.568513 1.0862493-.279231.0903497-1.500865.655035-1.500865.655035s1.463908-.6673554 1.708235-.8295741 1.868383-.7782391 2.057274-1.2628419c.090339-.2340877-.012319-.7084234-.57694-.613967-.657014.1088303-1.603524.4722823-2.038796.6961031-.353144.1806993-2.667064 1.2874826-3.178303 1.3080167-.45991.0184806-.969095-.0287477-.977308-.6119136l-.792523-1.4620218s-.533823.2587285-.813054 1.5872792c-.151935.7186905-1.357144 1.6365609-2.97504 2.1683919" fill="#e77f66"/><path d="m484.71538 113.752276c.006187-3.581132 2.816973-6.53803 6.358688-7.071915 5.806358-.876802 16.597808-2.544164 19.852078-3.293655 4.527235-1.043128 23.02217-7.2177062 23.02217-7.2177062l2.02237 4.8829882s-20.121043 10.108895-23.738725 10.899455c-3.617681.790559-22.198849 7.381978-25.802159 5.305989-1.260645-.726904-1.718501-2.051348-1.714422-3.505156" fill="#245394"/><path d="m485.559259 90.7295396.316188.3490782c1.024531 1.0308075 2.100391 2.0800956 3.315866 2.8870823.73914.4907629 1.884808.8090402 2.519237 1.3244439.254593.2073935.521504.3942531.794576.5605786-.367517 2.0698286-1.285283 7.5113424-1.139508 9.6325054 0 0-6.615307-.466122-9.027779-3.141704 0 0 2.743032-7.3696572 3.22142-11.6119844" fill="#e77f66"/><path d="m489.107133 101.791213c-.459909-1.8829693-1.517291-3.7269238-3.011997-4.9877122-.515345-.4332677-1.03685-.8234139-1.587099-1.176599.478388-1.7207503.893128-3.4825687 1.051222-4.8973622l.316188.3490782c1.024531 1.0308075 2.100391 2.0800956 3.315866 2.8870823.73914.4907629 1.884808.8090402 2.519237 1.3244439.254593.2073935.521504.3942531.794576.5605786-.367517 2.0698286-1.285283 7.5113424-1.139508 9.6325054 0 0-1.135402-.082136-2.632161-.363452.482494-1.010273.65496-2.174552.373676-3.328563" fill="#d85c48"/><path d="m489.224164 208.806279s.180678 6.597578 1.213422 7.499021c1.03069.901444 14.152485 1.295697 15.28378.09035 1.129243-1.203293.464016-3.23-2.350877-4.010293-3.020209-.839841-4.500543-.01848-6.391511-.804933-1.89302-.788506-1.392048-3.770045-1.392048-3.770045z" fill="#0c0a21"/><path d="m456.679402 208.582458s-1.012212 6.427146-.016425 7.367604c.997839.940458 14.363961 1.989746 15.538373.831627 1.176465-1.160171.591312-3.211519-2.192783-4.100642-2.985306-.954832-4.430736-.349078-6.358661-1.049288-1.513184-.552365-.49276-3.613987-.49276-3.613987z" fill="#0c0a21"/><path d="m466.378566 171.596592c-.289496-18.252684 1.794469-30.805127 2.740979-36.681962 2.182518.080083 4.371194.273103 6.551659 1.266949 4.00573 1.82342 8.034045 3.572918 12.058254 5.326523-3.268643 6.759797-10.42188 28.829755-11.282157 33.449908-1.071754 5.745417-13.080732 35.051562-13.080732 35.051562l-7.264107-.913764c.11703-4.722823 10.302796-35.916043 10.276104-37.499216" fill="#b4b8c3"/><path d="m481.284564 138.789399c2.108603 1.0267 4.295227 1.839847 6.483904 2.636567-3.207048 6.632486-9.05447 24.983734-10.374657 29.860563-1.020424-3.078049-5.948027-10.515469-7.841047-18.657205-1.264752-5.443567-1.482387-11.078101-.611844-16.599697l.010266-.065709c4.075537.279263 8.021726.722798 12.333378 2.825481" fill="#999eae"/><path d="m475.855989 137.791446c2.829265.954831 7.982716 2.326503 11.873469 3.716656 2.710181 6.84604 10.713429 23.010416 11.130222 30.318471.457856 8.063707-2.332399 38.61216-2.332399 38.61216h-8.315329s-.769938-34.433488-1.936137-36.647055c-3.839424-7.293681-8.081268-13.078113-10.49374-17.618183-4.044741-7.614013-5.41831-12.505215-6.128706-16.069919-.314135-1.574959-1.69181-6.850147.981414-8.501082 2.207155.626287 2.849797 5.388125 5.221206 6.188952" fill="#b4b8c3"/><path d="m490.75788 143.16725s-6.982823 2.821374-13.860935 2.158125c-5.091856-.488709-7.726071-.568792-10.705217-2.174552 0 0 3.184463-24.823569 6.85758-32.649082 3.673117-7.825512 9.705324-9.324495 9.705324-9.324495s4.753083 2.761825 8.637677 2.700223c0 0-.094446 15.250612-.390102 21.341-.297709 6.090388-.244327 17.948781-.244327 17.948781" fill="#245394"/><path d="m491.08844 122.990528c.022585-.669408.043116-1.377832.061595-2.129377l.006159-.275156c.018479-.716637.034904-1.459968.05133-2.219726l.006159-.377826c.018479-.846002.032851-1.706377.047223-2.564699v-.041068c-.314135 0-.630322-.004106-.938298-.063655-2.428897-.472282-4.539553-1.831634-6.641997-3.069835-.353145-.209447-.728875-.381933-1.098445-.562632-.420899 3.260801 1.045062 7.240293 1.677438 9.831686 1.751352 7.172531 2.699916 16.246511 1.196997 23.174688 3.104389-.661196 5.301279-1.527731 5.301279-1.527731s-.053382-11.85634.244327-17.946728c.024638-.537991.049276-1.168385.071861-1.833687z" fill="#283869"/><path d="m482.128416 84.5508548s2.825159-5.8994221 6.584509-5.6612275c3.757297.2402479 6.173875.8542149 6.672795 2.3059697.500973 1.4497014 1.344825 5.4497272 2.305707 6.9281762.962936 1.478449 3.040742 3.4189133 2.995572 4.0883221-.04517.6694089-2.196889.9034966-2.315973 1.176599-.119084.271049-1.279124 5.1417171-2.065487 5.6489072s-8.009407-2.3141833-9.12633-4.4640946c-1.116924-2.1499112-5.377247-6.2094857-5.050793-10.0226521" fill="#e77f66"/><path d="m489.801104 85.1114334c.36957.0225874.82948.2648888 1.123083.3162238.552302.1006167 1.118976.1478449 1.673331.2423014 1.116923.1909663 2.242059.3593452 3.34461-.0041068 1.632269-.5379912 1.106658-2.1478579 1.856064-3.279282.365464-.5503116 1.137455-.5482582 1.53577-1.1601718.379836-.583166.498919-1.4230071.488653-2.1047364-.026691-1.7186969-1.702076-1.8788622-3.018156-2.2053531-1.539876-.383986-1.630215-1.238201-2.367302-2.404533-1.825267-2.8809221-4.401992 1.1191038-6.426415.874749-1.03685-.1252575-2.122976-.8008265-3.126975-.2279275-.86849.4928163-1.385888 1.3593517-1.968988 2.133484-.605684.8049333-1.205209.4784425-2.088071.8131469-.646748.2443548-1.361251.8624286-1.825266 1.3901528-1.034797 1.1807057-1.710289 2.9753785-1.392048 4.5318568.271018 1.3244439 1.336612 2.0410809 1.389994 3.4353405.043117 1.1067833-.018478 2.4784554.521505 3.4907823.78431 1.468182 2.529503 1.6612017 3.697755 2.6612082 1.112817.9527782 2.68965 1.6427211 4.194622 1.2956962.15604-1.0410745.057488-2.7926258-.856171-3.3121364-.365464-.2073935-.813055-.2443547-1.389995-.7125302-1.047115-.854215-.427059-3.0020728 1.546036-2.7269171 1.18673.1642721 1.722607 3.4045395 3.01405 2.8788688.983467-.4004133-.201211-2.0390276-.470176-2.5954994-.357251-.7371711-.548195-2.6016595.151935-3.2238401z" fill="#0c0a21"/><path d="m521.300803 143.300721c.385996-.030801.841799-.12115.975255-.075975.632375.209447 1.693863-.09651 2.137347-.264889 1.010159-.379879 2.552088-1.051342 3.590991-.866536.603631.106777 4.219259.948672 3.332291 2.433281-.119084.19918-.562568.511297-.689865.462015-.371623-.137578-1.412579-.517457-1.412579-.517457l.962936.408627.500973.363452c.199157.30801-.104712.969206-.418847 1.078036-.310028.10883-.552302-.20534-.813054-.349078l.018479.01232c.250486.19918.794575.336758.457856 1.100623-.377783.852162-.636482.314171-.99784.223821l-.390101-.154005.747353.41068c.336719.30185-.410634 1.308017-1.079967 1.221774-.412686-.051335-1.387941-.644768-1.619949-.579059-.258699.071869-.568727.067762-.835639.092403-.82332.078029-1.687704-.143738-2.44327-.486656-.338772-.154005-1.012211-.418894-1.346878-.599594-.839745-.447641-1.765724-1.162225-2.012104-1.367565.558461-1.065715 1.451589-1.336764 1.336612-2.546218" fill="#e77f66"/><path d="m520.044264 147.844899 2.921658-5.784432s-14.483045-9.273161-19.778165-14.614058c-5.293066-5.340897-11.017298-16.20955-15.053825-16.895386-4.038581-.681729-8.1018 1.544158-5.763242 7.162264 2.338558 5.62016 14.179176 13.0699 16.591648 15.542195 2.412472 2.474349 18.714624 13.260866 21.081926 14.589417" fill="#245394"/><path d="m512.615904 37.12139c1.728767-.4661221 7.315436-2.4435477 10.101585 8.0246925 2.652692 9.9672103 5.065165 23.308159 5.065165 23.308159s-9.155075-9.9980113-15.478832-18.1459079c-6.641998-8.5544701-1.346878-12.4251317.312082-13.1869436" fill="#eb8e3e"/><path d="m520.442579 45.9202148 8.508327 11.659213c2.564406 3.5154232 4.806466 7.2546671 6.703593 11.1705035l32.105383 66.3536117-39.028665-56.4110423c-4.404045-6.3634908-7.760974-13.3902303-9.945544-20.8132763l-2.681438-9.1129953c1.630216-.613967 3.102337-1.5934394 4.338344-2.8460143" fill="#0c0a21"/><path d="m529.347167 69.4706752s9.33986-17.7393345 4.783881-30.7250447c-4.555979-12.9857103-15.99623 8.8973881-15.99623 8.8973881z" fill="#eb8e3e"/><path d="m529.412869 69.3659517s-19.843866-2.8398541-27.686967-14.1479354c-7.843101-11.3080814 16.589595-7.7372164 16.589595-7.7372164z" fill="#eb8e3e"/><path d="m537.188215 96.819928c.242274-.0985632 3.217314-.8398411 3.453428-.9117102l-1.305815-2.5072031c.09034-.6365544 2.513078-.7987731 3.051008-1.0800891 1.626108-.8480548.971148-1.8706486.232007-1.6386143-.503026.1581119-1.644587.4969232-2.081912.6899429-.464015.2073935-1.219581.1088303-1.681544.1930197-.449644.0821361-1.69797 1.1909728-2.088072 1.4497014-.312081.2053401-.786363 1.50925-.796629 2.2053531-.016425 1.1622251.665227 1.8234204 1.217529 1.5995996" fill="#e77f66"/><path d="m554.611396 442.442286.99784 103.567405c.051329 5.377859 1.574779 8.501082 9.259786 9.490822 9.561602 1.234094 12.456569-.451749 13.873254-3.080103 2.662959-4.940483 28.748455-103.918536 33.056001-110.649586 4.307546-6.733103-57.186881.671462-57.186881.671462" fill="#0c0a21"/><path d="m651.449052 406.782918c5.440894-.022587 10.218616 3.673535 11.432038 8.977471.712449 3.119117 1.260645 7.104769 1.303761 12.045253.051329 5.901475-.388048 9.737229-1.835532 12.965176-1.759564 3.91789-5.755029 6.340903-10.046149 6.496962-21.024438.763865-96.732945 3.73103-112.517698 7.44358-18.377904 4.318303-79.931873 31.642915-79.931873 31.642915l11.735907-138.460855s56.542186 45.833972 92.441824 52.961329c27.923081 5.544183 70.072561 6.000038 87.417722 5.928169" fill="#b4b8c3"/><path d="m612.935732 448.920768c-7.824623.373719-15.977752.790559-23.983052 1.252575 5.024101-16.219818 3.038688-34.766139.474281-45.829866 8.007354.753599 16.187175 1.275163 24.040541 1.644775 3.728553 15.774229 3.071539 30.585413-.53177 42.932516" fill="#245394"/><path d="m399.790231 412.505748c-.396262 50.057819 23.443069 90.828103 53.240692 91.063203 29.797623.233075 54.273436-40.155276 54.667644-90.213095.394208-50.059872-23.443069-90.830156-53.242746-91.065274-29.797623-.235111-54.273435 40.157347-54.66559 90.215166" fill="#d9dcdf"/><path d="m403.810333 412.538602c-.334666 42.579331 19.942418 77.263334 45.290827 77.463375 25.348409.198319 46.169583-34.161247 46.504249-76.742631.334666-42.583437-19.942418-77.265387-45.290827-77.465428-25.348409-.198318-46.169582 34.161247-46.504249 76.744684" fill="#0c0a21"/><path d="m459.420381 420.372329c-1.088179-15.17053 8.84094-28.242483 22.176265-29.199368 4.560085-.326491 8.886109.89323 12.705001 3.129384.866437 6.080121 1.355091 12.406651 1.303762 18.957001-.088286 11.256747-1.642534 21.905686-4.29728 31.525871-1.839638.667356-3.749084 1.172493-5.769401 1.318284-13.335325.956885-25.030168-10.56475-26.118347-25.731172" fill="#eb8e3e"/><path d="m539.516507 364.97772c.174519-1.5996.297709-3.092423-.5831-4.632474.782257.131418 1.938191.250515 1.874543-.207393-.09034-.618074-.221743-1.505143.227901-1.423007.435272.080082.786363.338811 1.164146.587272.806895.531831 1.728767.599594 2.68965.657089.318241 1.059555 1.219582 2.694062.640588 3.8337-.297709.589326-1.876595.312117-2.578778.581113-1.153881.437374-2.463802.544151-3.43495.6037" fill="#e77f66"/><path d="m561.67224 316.09034s6.668689-.375772 15.692361 3.893249l-4.204888 18.312233s-4.317811-2.61398-10.251466-2.254634z" fill="#fffffe"/><path d="m566.078338 325.710525c-.03901-3.053407-.229955-6.108869-.299763-9.160223-2.558247-.447642-4.106335-.459962-4.106335-.459962l1.236007 19.950848c1.716448-2.616034 2.535662-2.036974 2.874435-2.355252-.010266-2.63862.33056-5.359377.295656-7.975411" fill="#b4b8c3"/><path d="m525.244938 317.047225s23.866022-9.386098 39.509107-6.180738l1.028637 22.819449s-13.871201-3.069835-33.076532 5.340897z" fill="#fffffe"/><path d="m545.070326 370.749831-1.940244.673516-18.776219-54.066058 1.940244-.673516z" fill="#0c0a21"/><path d="m543.680331 365.107084v-6.460001s19.277192.149899 27.362566-2.168391c8.085375-2.318291 18.915835-11.829646 23.227487-10.289595s7.060844 5.93433 1.708235 10.137643c-5.352608 4.205366-18.061716 7.839886-23.572418 8.681781-3.818892.583166-25.689235.09651-28.72587.098563" fill="#245394"/><path d="m575.929437 361.074204c6.806251-2.829587 13.236772-8.989791 18.720783-14.729048 4.083751 1.657095 6.520861 5.905582 1.328399 9.981584-5.352608 4.205366-18.061716 7.839886-23.572418 8.681781-1.878649.285423-8.118225.31417-14.33727.268995 6.159503-.611913 12.22456-1.860381 17.860506-4.203312" fill="#283869"/><path d="m576.101903 439.959724s3.767562 6.082175 3.213207 7.52777c-.554355 1.443541-13.647406 9.045233-15.409024 8.439479-1.763671-.605753-2.102443-2.685849.242274-4.780318 2.10655-1.880916 4.163824-2.4148 5.576404-4.248488 1.23806-1.607813.004106-5.716669.004106-5.716669z" fill="#0c0a21"/><path d="m598.105701 388.368015s-2.621895 2.147858-5.387512 1.786459c-2.765617-.359345-29.736028 2.443548-32.499592 4.72693-2.765617 2.285436 8.551444 47.916121 8.551444 47.916121l9.376817-1.562639s-3.361036-33.359558-2.800521-33.599806c.562568-.240248 14.723266-.188913 38.870571-.188913 5.892592 0 12.462728-12.384064 5.00973-21.041204z" fill="#0c0a21"/><path d="m593.90492 337.542224c.936245-.396306 1.749299-.965099 2.523343-1.591386.36957 2.772092 1.41258 7.889168 4.239792 10.560643 0 0-5.851528 2.416854-10.649781 1.353192 0 0 .564621-6.507229-.427059-9.696162 1.465961.09035 2.942189-.049281 4.313705-.626287" fill="#e77f66"/><path d="m596.769089 345.462193c-.915713-2.872708-3.810679-4.657114-6.717965-4.689969-.088286-.963045-.232008-1.872702-.459909-2.603713 1.465961.09035 2.942189-.049281 4.313705-.626287.936245-.396306 1.749299-.965099 2.523343-1.591386.36957 2.772092 1.41258 7.889168 4.239792 10.560643 0 0-1.435165.59138-3.463694 1.061609-.047223-.691996-.203264-1.383993-.435272-2.110897" fill="#d85c48"/><path d="m595.576199 321.73514s-6.913016-2.172498-9.097587-.80904c-2.18457 1.363459-3.886646 5.653014-3.508863 8.164324.379836 2.509257-2.502812 5.423033-2.578779 6.330636-.059542.728958 2.188677 1.252575 2.260538 1.531838.071861.277209.203263 4.852187 3.233739 5.62632 4.262376 1.086249 9.96197-2.342931 11.920692-4.922003 1.958722-2.579073 4.268535-14.37381-2.22974-15.922075" fill="#e77f66"/><path d="m582.700784 322.026723c.365464-.365505 1.301708-.956885 1.531663-1.427114.190945-.392199.281284-.839841.523558-1.195079.767884-1.125264.950616-1.946625 4.110441-2.936364 2.747139-.860375 6.249843.131418 8.430307 1.876809.802789.642714 1.504972 1.423007 2.007998 2.32445.149881.268996.626216 1.012327.513292 1.295696-.143722.357292-1.168252.601647-1.486493.788506-.568728.330598-1.04301.841895-1.556301 1.258735-3.153666 2.562645-8.085375 5.30599-11.559335 1.749498-.455803-.468175-.911606-.971258-1.301708-1.496929-.634429 1.40658-1.106657 3.032874-.956776 4.593459 0 0-1.129242-.852162-1.408473-2.221781-.472229-2.31829.279231-3.735137 1.151827-4.609886" fill="#0c0a21"/><path d="m597.319338 321.81317c.837692-.451749 2.406313-.303904 3.276856-.117044 1.812947.394253 2.794361 1.722803 3.114655 3.486675.192998 1.065716.342879 2.158125.326454 3.242321-.030798 1.917877-.121137 3.12117-.811001 4.913789-.648801 1.687896-1.52961 3.357312-2.886754 4.585246-1.223688 1.11089-3.625894 2.388106-4.824944 1.905556-.464016-.186859-1.135402-3.523637-1.010159-4.392225.119084-.833681.529717-.843948 1.184678-1.215614 1.102551-.626287 2.334452-1.858328 1.52961-3.193039-1.149774-1.903503-3.285069-1.030808-4.055006 1.601653 0 0-.837693 1.478449-1.309921 1.242308-.474282-.234088-2.601364-7.706416 5.465532-12.059626" fill="#0c0a21"/><path d="m596.444689 331.299884s-1.1662-.492816-2.049062.537991c-.825373.960992-.435271 2.513363.377783 1.932251.813054-.583166.488654-1.088303.632376-1.566745.141668-.47639.720662-.858322 1.038903-.903497" fill="#d85c48"/><path d="m622.554822 385.838224s-9.764865 7.574998-30.013205 4.20126c0 0 .053382-5.81318-1.646641-11.501102-1.702076-5.685868-4.245951-16.768075-4.319865-22.618216-.08418-6.607845 3.539661-9.583224 3.539661-9.583224s3.800414 3.564705 9.46921-1.080089c0 0 10.738067 2.546218 15.766275 14.755742 5.026155 12.209525 7.204565 25.825629 7.204565 25.825629" fill="#245394"/><path d="m598.171403 354.782582c5.225311 5.646854.170413 19.548381-6.438734 27.302025-.219689-1.154012-.478388-2.340878-.837693-3.546225-.895181-2.995912-2.018264-7.484648-2.899073-11.922048 1.767778-1.090356 3.278909-2.733077 4.229526-5.03494 2.030583-4.91995 3.35077-8.25262 5.945974-6.798812" fill="#283869"/><path d="m555.812499 393.634989c-.769938.589327-1.517291 1.141691-2.459695 1.269002-.443484.059549-.872596.094457-1.254485.322384-.394208.232035-.932138.357292-1.400261.50103-.441431.135525-.99168.242302-1.328399.632448-.400368.470229.371623.618074.901341.640661.574887.026694 2.083965-.958938 2.535662-.546205.451697.410681-1.461856 1.494877-1.845798 1.704324-.905447.496923-1.572727.100616-2.508971.11499-.546143.00616-.792523.176593-.416793.683783.281284.377826.831533.392199 1.260645.423.876703.061602 1.880702-.055441 2.693756-.439428-.597472.375773-1.763671.613967-2.465854.669409-.486601.036962-2.586992-.166325-2.595248.6037-.016382 1.546212 4.642256.558525 5.328014.024641-.739141.464069-1.591205.636555-2.439163.831628-.496867.112937-1.683598.332651-1.032744.973312.964989.946618 3.258377-.618074 4.408151-1.133478-.632375.58522-1.291442.823414-2.104497 1.256682-.960882.509244-.250486 1.036968.823321.685836.451697-.147845 1.299655-.593433 1.482387-.69405 1.925871-1.065715 2.64448-2.053401 3.677223-3.903516.36957-.665302 1.747246-1.490769 1.60763-2.133484-.264858-1.244361-1.966934-1.891182-2.866222-2.486669" fill="#e77f66"/><path d="m554.381441 392.690425 3.919498 5.316256s25.099975-10.868654 27.356406-13.739309c2.258485-2.874762 9.633463-13.388177 10.787344-16.186963 2.675277-6.496962 5.995249-14.244445 0-15.601743-3.270697-.741278-5.3793.082136-7.411936 4.899415-2.765617 6.550351-8.641783 16.928241-11.033723 20.082266-.925979 1.223827-23.617589 15.230078-23.617589 15.230078" fill="#245394"/><path d="m536.718039 360.452023c-.355198.564686.620057 2.985646 1.552195 4.002079.732981.798774 1.599418.564686 2.326239.166326.78431-.472282 1.718502-.642715 1.835532-1.102677.166307-1.802886-1.504972-.447641-2.246165-.182752 0 0 2.018264-1.00206 1.991572-1.868596-.080073-1.628347-2.562353.250515-3.26043.562632.704237-.193019 1.823213-.975365 1.919712-1.277215.478388-.359345.178625-.852162.073914-.950725-.53793-.503083-2.652693 1.016434-2.652693 1.016434.379836-.273103 1.925872-.827521 1.303762-1.542105-.412687-.472282-1.034797-.078029-1.40642.034908-.726822.219714-1.320187.745385-1.437218 1.141691" fill="#e77f66"/><path d="m541.475229 360.382208c-.234061-.09651-.457856-.143739-.687811-.213554l.020532-.030801c-.09034-.618074-2.439164-.776186-2.960668-1.047235-1.57478-.823414-.940351-1.815207-.223796-1.589333.488654.154006 1.595312.480496 2.018264.669409.451697.201234 1.182625.104724 1.630215.18686.437325.080082 1.646641 1.156065 2.026477 1.404526.804842.529778-.964989.967152-1.823213.620128" fill="#e77f66"/><path d="m366.025888 378.86898c-.519452 1.41274 4.161771 4.435347 10.458836 6.747477 6.295012 2.314183 11.820087 3.043141 12.339538 1.628347.519451-1.41274-4.163824-4.435347-10.458836-6.74953-6.295013-2.31213-11.820087-3.041087-12.339538-1.626294" fill="#fffffe"/><path d="m377.478457 350.523828c-.599525 1.381939 3.905125 4.665327 10.058469 7.330642 6.155397 2.667369 11.629142 3.708443 12.228667 2.324451.599525-1.381939-3.905125-4.665328-10.060522-7.330643-6.153344-2.665315-11.629142-3.70639-12.226614-2.32445" fill="#fffffe"/><path d="m369.000928 454.542981c.44759 1.439434 6.001409.997953 12.407292-.98974 6.407937-1.985639 11.23904-4.761837 10.793503-6.201272-.447591-1.439434-6.001409-.995899-12.407293.98974-6.405883 1.987692-11.23904 4.763891-10.793502 6.201272" fill="#fffffe"/><path d="m380.648548 485.212584c.562568 1.398366 6.060951.50103 12.284103-2.00412 6.221098-2.50515 10.809928-5.667388 10.24736-7.065754-.562568-1.398367-6.063005-.50103-12.284103 2.00412-6.223151 2.505149-10.809928 5.669441-10.24736 7.065754" fill="#fffffe"/><path d="m362.539609 417.060192c.07802 1.505143 5.570244 2.441494 12.26973 2.09447 6.697433-.349079 12.064414-1.850115 11.986393-3.355258-.07802-1.505143-5.572297-2.441495-12.26973-2.09447-6.699486.349079-12.064414 1.850115-11.986393 3.355258" fill="#fffffe"/><g fill="#0c0a21"><path d="m640.961471 453.230857-1.129242-2.846014-47.307038-.162219 1.071754 2.887083z"/><path d="m646.999837 468.442455-1.149774-2.893243-47.610906.061602 1.088179 2.936364z"/><path d="m633.489994 438.097289-1.123083-2.83164-47.300878-.383986 1.065594 2.870655z"/><path d="m653.136756 483.904567-1.168253-2.940471-47.920934.293637 1.106657 2.985645z"/><path d="m659.376332 499.629515-1.18673-2.991806-48.23507.533884 1.127189 3.036981z"/><path d="m665.722674 515.619351-1.207263-3.041087-48.55331.780292 1.147721 3.090369z"/><path d="m672.177833 531.880237-1.227794-3.092423-48.873605 1.036968 1.1662 3.143757z"/><path d="m629.970864 557.000541.248434-.009259c1.517291-.045175 2.556193-1.459968 2.057274-2.80084l-45.884193-123.271844c-.305922-.819307-1.168252-1.383993-2.133241-1.392325h-.04517c-1.502918-.014255-2.55414 1.273228-2.081912 2.552497l45.660397 123.518252c.320295.864482 1.201103 1.431221 2.178411 1.403519"/><path d="m678.049893 557.000541.248433-.009259c1.517291-.045175 2.556194-1.459968 2.057274-2.80084l-45.886245-123.271844c-.303869-.819307-1.166199-1.383993-2.131188-1.392325h-.047223c-1.500866-.014255-2.552088 1.273228-2.079859 2.552497l45.660397 123.518252c.318241.864482 1.201103 1.431221 2.178411 1.403519"/></g><path d="m288.455158 279.07162s-4.989198 17.991903-7.44068 20.93648c-2.453536 2.942525-10.467049 7.277255-10.467049 7.277255l2.127082 3.761831s14.561065-7.423046 17.088515-13.4929c1.472121-3.535957 2.451482-6.589365 2.944242-9.322442.400368-2.227941 2.047008-7.765964 1.225741-9.977478-.533823-1.439434-4.334237-2.207406-5.477851.817254" fill="#245394"/><path d="m272.674511 311.047186-2.127082-3.761831s8.013513-4.33473 10.467049-7.277255c.687811-.82752 1.576833-2.8378 2.496652-5.303935.901341 2.398372 2.077806 5.045207 2.814893 7.2444-5.137026 4.757731-13.651512 9.098621-13.651512 9.098621" fill="#16458a"/><path d="m238.479002 364.946919-3.67517-3.433287s-14.698628-1.082143-15.558905.207393c-.858224 1.29159 13.938956 8.271101 15.840189 8.145843 1.89918-.12731 3.145453-3.503102 3.393886-4.919949" fill="#0c0a21"/><path d="m265.424775 315.211484s-13.899945-3.53801-15.045613-1.248468c-1.143614 2.289543-15.57533 47.550616-15.57533 47.550616l3.67517 3.433287s15.474725-38.199426 19.95679-42.193292c4.482066-3.991812 9.06063-5.965131 6.988983-7.542143" fill="#e77f66"/><path d="m265.424775 315.211484s-13.899945-3.53801-15.045613-1.248468c-1.143614 2.289543-15.57533 47.550616-15.57533 47.550616l3.67517 3.433287s15.474725-38.199426 19.95679-42.193292c4.482066-3.991812 9.06063-5.965131 6.988983-7.542143" fill="#d85c48"/><path d="m272.592384 306.876728c-1.053275-.283369-1.925871-.632448-2.888807-1.160172-.774044-.425054-1.521397-.827521-2.453536-.694049-.66112.094456-6.003462 2.31829-4.580617 3.312136.461963.322384 1.61379-.242301 2.0737-.406573.65496-.236142 1.31608-.556472 1.94435-.835735-.572834-.028747-3.461641 1.19508-3.159826 1.870649.533824 1.186866 3.459588-.39836 4.139187-.780293-.519452.080083-2.328293.759759-2.326239 1.418901.004106 1.036967 2.151719.170432 2.619842-.067763.342879-.174539.601578-.425054.979361-.476389.44759-.059548.884915.141685 1.307867.232035.737088.156058 1.527557.112937 2.276963.043121.445538-.041068 1.482387.053388 1.70413-.328544.234061-.40452.057488-1.326497-.287444-1.622187-.36957-.316224-.874649-.377826-1.348931-.505137" fill="#e77f66"/><path d="m272.592384 306.876728c-1.053275-.283369-1.925871-.632448-2.888807-1.160172-.774044-.425054-1.521397-.827521-2.453536-.694049-.66112.094456-6.003462 2.31829-4.580617 3.312136.461963.322384 1.61379-.242301 2.0737-.406573.65496-.236142 1.31608-.556472 1.94435-.835735-.572834-.028747-3.461641 1.19508-3.159826 1.870649.533824 1.186866 3.459588-.39836 4.139187-.780293-.519452.080083-2.328293.759759-2.326239 1.418901.004106 1.036967 2.151719.170432 2.619842-.067763.342879-.174539.601578-.425054.979361-.476389.44759-.059548.884915.141685 1.307867.232035.737088.156058 1.527557.112937 2.276963.043121.445538-.041068 1.482387.053388 1.70413-.328544.234061-.40452.057488-1.326497-.287444-1.622187-.36957-.316224-.874649-.377826-1.348931-.505137" fill="#d85c48"/><path d="m248.512833 282.849879-3.270696 1.340871 11.230827 27.104898 3.307653-1.786459z" fill="#0c0a21"/><path d="m258.581567 312.357256h21.383742v-3.32035h-21.383742z" fill="#0c0a21"/><path d="m317.780552 293.587114c-2.860062-1.636561-3.33845-3.443554-1.755458-9.427165 1.585045-5.985665-2.5603-12.191044-6.547552-13.831712-2.92987-1.2074-5.502489-1.739231-7.282586-4.860401-1.782149-3.123224 1.593258-9.782404-4.048847-14.716728-4.110441-3.593452-10.009192-.722797-10.009192-.722797-1.268858-.702263-1.792416 6.698195-1.884808 12.264966 7.145023 10.936416 5.110334 25.226036 2.506918 37.470469-.063649.299796-.164254.558525-.262806.82136.560515 9.474394 1.012212 17.320441 1.012212 17.320441s17.174748 9.724909 28.857272 1.398366c11.680471-8.326542 5.145238-22.43957-.585153-25.716799" fill="#0c0a21"/><path d="m267.278786 362.702551-4.360928 2.507203s-5.342343 13.739309-4.360929 14.938495c.979361 1.199187 11.992553-10.903561 12.427825-12.757783.437324-1.852168-2.424791-4.03288-3.705968-4.687915" fill="#0c0a21"/><path d="m272.838764 314.400391s-28.01958 1.963051-30.635316 4.470254c-2.617788 2.507203 21.170213 46.076274 21.170213 46.076274l3.905125-2.244368s-5.888485-20.716766-7.413989-25.513512c-1.527557-4.798799-4.469746-10.57707-3.925656-11.340936.546142-.763865 28.781305 3.488729 28.563669-4.470255-.217636-7.958983-11.664046-6.977457-11.664046-6.977457" fill="#e77f66"/><path d="m286.656583 267.133144s2.942189 8.014426 1.143614 13.983664l9.812089-2.371679s-4.013943-13.410764-5.730391-15.700307c-1.718502-2.289542-5.225312 4.088322-5.225312 4.088322" fill="#e77f66"/><path d="m290.74444 274.330316c3.213207 0 4.878326 2.373732 5.032314 4.858348l1.835532-.443535s-4.013943-13.410764-5.730391-15.700307c-1.718502-2.289542-5.225312 4.088322-5.225312 4.088322s1.318134 3.605773 1.64664 7.780338c.685758-.359345 1.488547-.583166 2.441217-.583166" fill="#d85c48"/><path d="m285.640265 256.687492s-3.810679 1.821367-4.722286 3.357311c-.909553 1.537998-.112924 3.661215-.188891 5.065741-.075968 1.404527-.464016 3.490782-.250487 3.831647.211476.342918 1.615843 0 1.843745.303903.227901.303904 2.049061 1.441488 2.617789 2.731024.568727 1.289536 1.326346 1.404527 2.654745.759759 1.3284-.644768 6.40999-7.361444 6.467479-10.509308.057489-3.149918-4.646319-6.829613-8.422094-5.540077" fill="#e77f66"/><path d="m288.869898 252.414363s-1.778044 3.558545-1.962829 4.969232 1.1662 5.581145 1.962829 6.13351.12319-4.661221 2.147613-3.067782c2.02237 1.595493-.12319 4.601672 0 5.21564.121137.611913 1.040956 2.574965 3.126975 2.759771 2.086018.184806 5.520968-10.182817 3.250164-12.759836-2.26875-2.574965-6.132812-3.250535-8.524752-3.250535" fill="#0c0a21"/><path d="m289.216883 250.328108s-3.352823-2.513364-6.847314.30801c-3.496545 2.821373-3.375408 7.053434-6.258056 6.685875 0 0 1.901234 4.907629 6.073271 3.741297 4.169983-1.164279 8.483689-7.790605 7.032099-10.735182" fill="#0c0a21"/><path d="m300.638655 305.786372-12.996552-.981526s-6.763134 7.55241-13.442089 7.55241c-6.594774 0-22.839438 0-22.839438 0s1.233954 10.425119 6.732337 17.967262c0 0 21.697877.683783 32.273744-.188913 10.573814-.872695 20.628176-12.536015 10.271998-24.349233" fill="#0c0a21"/><path d="m257.392783 313.884987c3.309707-.324438 6.524967-1.114997 9.785398-1.527731h-14.329058c1.414633.726904 2.11271 1.763872 4.54366 1.527731" fill="#d55f2b"/><path d="m296.366013 274.219433s-5.966505 2.347037-7.988876 2.564698c0 0-4.200781 9.267-5.837155 11.774203-1.634322 2.507203 4.145345 12.102748 4.471799 16.246512 0 0 3.47396 3.316243 14.002604 1.277216 0 0 2.747138-26.030969-4.648372-31.862629" fill="#245394"/><path d="m294.705 306.74531c-2.535662 0-4.340396-.388093-5.562031-.817253 1.223688.42916 3.032529.817253 5.566138.817253 1.716448 0 3.767562-.178646 6.194407-.642714-2.430951.464068-4.482065.642714-6.198514.642714" fill="#08091d"/><path d="m300.854238 285.053178c-.234061-1.61192-.546143-3.160184-.95267-4.577031.406527 1.416847.718609 2.965111.95267 4.577031" fill="#08091d"/><path d="m294.709107 306.74531c-2.533609 0-4.34245-.388093-5.566138-.817253-.702183-.248462-1.211369-.509244-1.554248-.716637 1.642534-1.977426 2.921658-4.398386 3.42879-6.357331.650854-2.509257.813054-5.93433.95267-8.509295.133456-2.451762-.995786-6.474375.104711-8.739277.654961-1.351138 2.556194-2.172498 4.241845-2.172498.597472 0 1.168252.10267 1.64664.322384.476335.21766 1.178519.459962 1.938191.720744.406527 1.416847.718609 2.965111.95267 4.577031.002053.004107.002053.00616.002053.010267.002053.010267.002053.018481.004106.026694 0 .004107.002053.010267.002053.014374.002053.008214.002053.016427.004107.024641 0 .004107 0 .008214.002053.014374v.00616c.002053.016427.006159.034908.008212.051335 0 .004107 0 .008214.002054.012321 0 .008213.002053.014373.002053.022587 0 .004107.002053.00616.002053.010267.002053.008214.002053.018481.004106.026694v.002054c.004107.032854.008213.061602.012319.094456 0 0 0 .002053.002053.004107 0 .008213.002054.01848.002054.026694.002053.004107.002053.004107.002053.008214 1.155933 8.332702.342879 18.184922.147828 20.271178v.002053c-.008213.075976-.014372.141685-.020532.197127v.014374.002053c0 .002054-.002053.00616-.002053.008214 0 .014374-.002053.026694-.004106.039014v.006161.010267c0 .002053-.002053.004106-.002053.00616v.004107.002053.004107c0 .004107-.002054.00616-.002054.010267v.008213.002054.004107c0 .002053-.002053.002053-.002053.004106v.006161c0 .010267-.002053.020534-.002053.028747 0 .002054 0 .002054-.002053.004107v.002053.004107.00616c0 .004107 0 .006161-.002053.008214v.002053.002054.008213.004107.002054c-.036957.00616-.073914.014373-.110871.020534-2.426845.464068-4.477959.642714-6.194407.642714" fill="#16458a"/><path d="m274.635286 306.876728c-1.053275-.283369-1.923818-.632448-2.888807-1.160172-.774044-.425054-1.521397-.827521-2.451482-.694049-.66112.094456-6.003463 2.31829-4.580618 3.312136.461963.322384 1.611737-.242301 2.0737-.406573.65496-.236142 1.31608-.556472 1.94435-.835735-.574887-.028747-3.463694 1.19508-3.159826 1.870649.531771 1.186866 3.457535-.39836 4.139187-.780293-.519452.080083-2.330346.759759-2.326239 1.418901.004106 1.036967 2.151719.170432 2.617788-.067763.344933-.174539.603632-.425054.981415-.476389.44759-.059548.882862.141685 1.307867.232035.737088.156058 1.527557.112937 2.276963.043121.445538-.041068 1.482388.053388 1.70413-.328544.234061-.40452.055435-1.326497-.289497-1.622187-.367517-.316224-.872596-.377826-1.348931-.505137" fill="#e77f66"/><path d="m273.735998 306.74531 1.145668 4.301876s28.128398-3.271068 28.781305-8.25878c.654961-4.989765-1.143614-28.209628-7.931387-25.798935-6.785719 2.410693-.082127 19.256798-1.143614 20.564815-1.063541 1.308016-20.851972 9.191024-20.851972 9.191024" fill="#245394"/><path d="m610.962638 151.471205s-8.27016 2.067776-14.470727 6.661235c-6.202619 4.595512-12.633141 18.837904-13.897892 28.831808-1.262698 9.991851-3.790148 17.80299 0 22.913906 3.790148 5.112969 16.08041 6.14583 26.646011 7.178691 10.565601 1.034915 25.145145-1.492823 28.077068-5.168411 2.931924-3.675588 2.701969-31.497124-2.810786-41.994111-5.512756-10.496988-15.50347-18.653098-23.543674-18.423118" fill="#245394"/><path d="m625.045315 211.329909c-2.122975-.704317-4.309599-1.476396-6.060951-2.919937-3.761403-3.100636-6.056845-4.02056-10.738067-3.975385-4.282908.043121-8.420041.030801-12.097265-2.400426-3.278908-2.166339-5.108281-7.002099-4.317811-10.802945.574887-2.767985 1.404366-4.971284 3.112602-7.23824 2.408366-3.199199 2.870328-5.496955 2.012104-9.496981-1.02453-4.778265-1.178518-8.86248.225849-13.599677.722715-2.445601 2.43095-4.223847 4.352715-5.823447-1.700023.858322-3.441109 1.872703-5.04258 3.059569-6.202619 4.595512-12.633141 18.837904-13.897892 28.831808-1.262698 9.991851-3.790148 17.80299 0 22.913906 3.790148 5.112969 16.08041 6.14583 26.646011 7.178691 10.565601 1.034915 25.145145-1.492823 28.077068-5.168411.568728-.71253 1.018372-2.342931 1.332506-4.570871-3.66901 3.626306-8.424147 5.73515-13.604289 4.012346" fill="#283869"/><path d="m609.814917 153.538981s-8.873791-2.154018-10.079001-8.872748c-1.205209-6.720782 2.326239-9.045233 5.038474-7.494915 2.714288 1.550318 3.145453.714584 5.040527-.462015 1.895074-1.174546 4.650425.720744 6.0281 2.702276 1.379729 1.979479 1.638428-.344971 4.911177-.6037 3.27275-.258728 4.391726 2.755665 2.669118 6.71873-1.722607 3.963064-3.358982 8.184857-13.608395 8.012372" fill="#245394"/><path d="m619.429901 149.760722c-2.297494.59138-.936244-2.379892-1.311974-3.4107-.599525.028748-.82332 1.026701-1.024531 1.459969-.431165.936351-1.408473 1.562638-2.443269 1.550318-1.431058-.016427-1.630215-1.581119-2.242059-2.540058-.256646-.40452-.377783-.390146-.53793.094457-.176573.533884-.00616 1.158118-.503026 1.574959-.917766.770025-2.44327-.104724-3.155719-.722798-.778151-.675569-1.100498-1.786459-1.929978-2.441494-.151934.158112-.215583.367559-.258699.577006-.205317.967152-.145775 2.807-1.720555 2.470242-1.334559-.287476-2.231793-2.468189-2.660905-3.579079-.494813-1.279269-.960882-2.804946-.956776-4.186885 0-.601647.036957-1.180706.119084-1.765925.047222-.338812.1622-1.073929.328506-1.355245l-.010265-.00616c-1.279124 1.125264-2.049062 3.490782-1.385889 7.186904 1.026584 5.714616 7.596721 8.127363 9.539018 8.720796.338772.10267.69397.156193 1.047115.156193 8.075109.022453 10.586133-2.79276 12.169125-5.963212l-.014372.014374s-2.223581 1.952784-3.046901 2.166338" fill="#283869"/><path d="m613.549629 173.500095c4.348609.429161 8.280425 2.383999 8.204458 6.739264l-7.262054-.129365c-.010266-1.646827-1.69181-2.030814-2.751245-2.049294-.667279-.010267-2.825159-.049282-2.849797 1.283376-.053382 2.983592 13.384601.12115 13.234719 8.558577-.088286 5.063687-4.085803 6.876841-8.95797 7.143783l.217635 5.384018-4.432789-.078029.369571-5.412766c-4.50465-.552365-8.666421-2.745398-8.584295-7.297788l7.260001.129364-.004106.156058c.004106 2.002067 2.233846 2.435334 3.371301 2.453815 1.100498.020534 3.260431-.018481 3.285069-1.472289.055435-3.100636-13.376388-.511297-13.234719-8.675621.086233-4.708449 3.767562-6.451787 8.288638-6.76185l-.178626-5.423033 4.434842.078029z" fill="#fffffe"/><path d="m603.353598 150.343888-.800735 4.230007s2.266697 2.180712 8.438519 2.180712c6.173875 0 9.504113-2.182765 9.504113-2.182765l-.402421-3.817274s-8.444678 2.139645-16.739476-.41068" fill="#0c0a21"/><path d="m681.998134 43.0721471h-5.744763v-5.745417h-3.231686v5.745417h-5.744763v3.2320538h5.744763v5.745417h3.231686v-5.745417h5.744763z" fill="#fff6f7"/><path d="m457.067451 100.879503h-5.74271v-5.7454175h-3.23374v5.7454175h-5.74271v3.232053h5.74271v5.745417h3.23374v-5.745417h5.74271z" fill="#fff6f7"/><path d="m722.67344 143.329469h-5.74271v-5.745417h-3.233739v5.745417h-5.744763v3.232054h5.744763v5.745417h3.233739v-5.745417h5.74271z" fill="#fff6f7"/><path d="m739.503256 298.642589h-5.74271v-5.743364h-3.233739v5.743364h-5.74271v3.232053h5.74271v5.745417h3.233739v-5.745417h5.74271z" fill="#fff6f7"/><path d="m531.71447 5.74541703h-5.744764v-5.74541703h-3.231686v5.74541703h-5.744763v3.23205376h5.744763v5.74541701h3.231686v-5.74541701h5.744764z" fill="#fff6f7"/><path d="m155.549505 253.652564h-5.744764v-5.743363h-3.231686v5.743363h-5.744763v3.234108h5.744763v5.743363h3.231686v-5.743363h5.744764z" fill="#fff6f7"/><path d="m235.795512 435.532591c24.110349 11.511368 18.396383 9.626346 22.30972 10.66742 3.911285 1.041074 26.986837 2.496936 26.986837 2.496936l2.547981 9.903555s-28.105813-1.537998-31.937024-2.418907c-3.833264-.880909-19.95679-7.002099-19.95679-7.002099z" fill="#fffffe"/><path d="m274.61886 449.319128c-.706289 1.215613-1.973094 2.102683-3.781934 2.047241-3.880487-.119097-7.68706-.221768-11.393028-.774132-2.15172-.172486-4.317812-.577006-6.467479-1.229988-3.755243-1.139638-7.545391-2.416853-11.091212-4.102696-1.890967-.89939-4.096069-1.289536-6.116386-1.977425l-.022585 5.897368s16.123526 6.119136 19.95679 7.002099c3.831211.880909 31.937024 2.418907 31.937024 2.418907l-2.52129-9.800885c-3.426737.328544-6.962292.50103-10.4999.519511" fill="#d9dcdf"/><path d="m232.494018 552.225337s-1.022477 2.983593-1.032743 5.289562c-.010266 2.30597.156041 4.757731.864384 5.338844 1.412579 1.158118 19.301829 1.308017 20.757525-.344972 1.455696-1.652988.484548-4.326516-3.303547-5.2526-4.061165-.98974-4.629893-.566739-7.186087-1.537998s-1.93819-3.843967-1.93819-3.843967z" fill="#0c0a21"/><path d="m193.253877 548.865973s-2.018264 2.42096-2.849797 4.572925c-.82948 2.151964-1.548089 4.503109-1.094338 5.295722.909553 1.587279 17.568956 8.102722 19.517412 7.076021 1.950509-1.024647 1.995679-3.868608-1.213422-6.082175-3.443162-2.375785-4.122761-2.180712-6.165663-4.000026s-.441431-4.283395-.441431-4.283395z" fill="#0c0a21"/><path d="m232.376988 476.189938-24.104189 2.677635s21.556208 34.464289 23.188476 39.998206c1.630215 5.53597-.601578 35.62446-.601578 35.62446h10.914639s2.342665-35.534111 1.806788-38.213799c-.535877-2.677636-11.204136-40.086502-11.204136-40.086502" fill="#0c0a21"/><path d="m231.461275 477.974344h-27.516554s-3.215261 8.437426-1.741086 14.866626c1.472121 6.427146 2.455588 20.088425 2.320079 22.499119-.133456 2.410693-13.569385 34.552584-13.569385 34.552584l10.019458 3.72487s13.817819-30.644962 15.156485-34.125477c1.338665-3.482569 15.331003-41.517722 15.331003-41.517722" fill="#0c0a21"/><path d="m230.295076 421.041737c-2.246166.151952-4.558033-.078029-6.644051-.52567-.761725-.162219-1.531663-.437375-2.256431-.792613-.234062 2.765931-1.012212 9.217718-3.301494 11.644839 0 0 .314135 3.260801 6.026047 4.063681 5.713966.80288 6.894537-3.437394 6.894537-3.437394s-1.102551-6.878894-.718608-10.952843" fill="#e77f66"/><path d="m218.111578 431.473016.059542.236142.010266.030801.135509.355238.008213.016427.24022.443535.041064.063655c.211476.324438.511239.679676.928032 1.030808l.067754.059548c.211476.170433.451697.338812.724768.50103l.110871.061602c.287444.164273.601579.322384.960883.468176.359304-1.431221 1.088179-2.778252 2.19073-3.856288 1.952562-1.90761 4.340396-2.854228 6.910962-2.944577-.223795-2.20946-.394208-4.891202-.205316-6.897376-2.246166.151952-4.558033-.078029-6.644051-.52567-.761725-.162219-1.531663-.437375-2.256431-.792613-.234062 2.765931-1.012212 9.217718-3.301494 11.644839l.012319.071869z" fill="#d85c48"/><path d="m221.018864 404.593992s9.571868-2.357304 10.972128 0c1.398207 2.355252.956776 6.037 1.509078 7.694095.552303 1.657095 2.816947 3.480516 3.036636 4.141711.221742.663249-1.656907 1.82342-1.932031 2.320343-.277178.496924-1.472122 5.798806-3.165985 6.903536s-10.343859-2.429174-12.331325-6.681768c-1.987467-4.252594-.683705-13.127395 1.911499-14.377917" fill="#e77f66"/><path d="m231.013684 431.031535s-6.720018 3.336777-12.175284-.673516c0 0-10.384923 1.815207-11.65994 2.334718-1.055328.429161 1.720555 15.215704.515345 22.649017-1.205209 7.433313-6.026047 25.44575-6.026047 25.44575s12.721427 9.776244 34.548653 3.616039c0 0 .71245-25.25889.478388-32.275362-.340825-10.267007-.412686-16.338915-.412686-16.338915s-2.494599-2.562645-5.268429-4.757731" fill="#fffffe"/><path d="m215.120113 471.904489c-.950617-3.903516-1.617896-7.716682-.932138-11.753669.741193-4.373745-2.393994-10.135589-2.9812-14.58531-.626216-4.759784-1.11487-7.991838-4.241844-10.624299.211476 4.486682 1.663066 14.638699.728874 20.400543-1.205209 7.433313-6.026047 25.44575-6.026047 25.44575s8.079215 6.166364 22.369262 5.591412c-5.631839-3.406593-7.340074-7.997999-8.916907-14.474427" fill="#d9dcdf"/><path d="m225.135465 405.945131s.180679 2.33061-1.217528 4.833706c-.618004 1.102677 2.065486 4.236167 1.217528 5.566771-.564621.885016-1.318134.618074-1.929978-1.2074-.209423-.626287-.866436-1.084195-1.465961-1.375778-2.266697-1.106784-2.964774 2.392212-.940351 3.533903 1.416686.798773.385995 4.433294.385995 4.433294-1.613789 1.127317-6.69538-.554419-5.960345-4.287502.470175-2.377839.671385-3.281336-.141669-3.903516-1.468015-1.125264-3.309706-4.145818-.698077-6.515443 3.59715-3.264908.509186-4.494895 4.533394-5.299829 4.026262-.806986 7.202513 1.774139 6.216992 4.221794" fill="#0c0a21"/><path d="m218.183439 403.610413c.262806-.858322 1.884808-1.905556 2.687597-2.449708 1.240113-.839841 2.654746-1.340871 4.157664-1.650934 1.4906-.310064 3.069486-.299797 4.545714.053388 1.281176.305957 2.336505.930191 3.650532 1.141691 1.215475.19302 2.430951.195073 3.322025-.488709.232008.82136.151935 2.443547.024638 2.995912-.266911 1.168386-1.094338 2.184819-1.847851 3.207413-2.044955 2.770039-7.329808 4.115017-10.935171 2.435334-1.741086-.811093-3.3056-1.51541-4.106335-3.098582-.45991-.911711-.823321-1.359352-1.498813-2.145805" fill="#0c0a21"/><path d="m193.869827 538.299169c-.769938.223821-1.587099.369613-2.469961.402467-.361357.01232-.716555.034908-1.065594.057495-1.480334.09035-2.878541.178646-4.406098-.381932-2.855956-1.047235-4.307546-2.89735-5.007676-6.384025-.61595-3.082156.186838-6.305996 2.262591-9.076034.94651-1.264896 1.956669-1.975373 3.124921-2.796733l.355198-.250515c1.537823-1.09241 2.276963-2.92815 2.993519-4.702289l.119084-.29569c.299762-.741278.53793-1.459968.788416-2.22178.172466-.521564.344932-1.047235.539983-1.581119 2.59931-7.119143 10.154968-10.073987 16.039346-11.295761l.240221 1.147851c-5.588723 1.166332-12.764544 3.936371-15.177016 10.550376-.190944.521564-.361357 1.034915-.529717 1.546212-.244327.747438-.49892 1.519517-.813055 2.293649l-.119083.29569c-.743247 1.841901-1.582993 3.93021-3.402099 5.219746l-.359305.252568c-1.131295.79672-2.024423 1.425061-2.860062 2.540058-1.874542 2.501043-2.603417 5.392232-2.053168 8.14379.624163 3.106796 1.780097 4.601672 4.262376 5.513382 1.295549.474336 2.515131.39836 3.929763.312117.357252-.022587.722715-.045174 1.094339-.059548 2.496652-.09035 4.399938-1.2074 6.420255-2.392213 1.176465-.687889 2.391941-1.402473 3.761403-1.92609 2.952456-1.131424 5.040527-3.232054 6.57219-6.611953l.110871-.244355c1.975148-4.365531 3.537608-7.813192 7.11012-11.250586l.521505-.50103c2.630108-2.519523 4.369141-4.182778 4.689435-7.870687.312081-3.568812-.94651-7.15405-3.061273-8.716689-1.426952-1.051341-3.159825-1.172492-5.139079-.373719l-.439378-1.086249c2.97504-1.203293 5.052846-.38604 6.274481.517457 2.831318 2.092416 3.816839 6.52571 3.533501 9.759817-.359304 4.127336-2.428897 6.108869-5.048739 8.618125l-.517398.496923c-3.410312 3.283389-4.929656 6.6407-6.855527 10.891241l-.108818.242302c-1.667172 3.679695-3.962614 5.977451-7.223044 7.223866-1.279124.490763-2.451483 1.178652-3.586884 1.843954-1.404367.823414-2.841584 1.665309-4.500544 2.149911" fill="#fffffe"/><path d="m225.309984 498.452916c-5.927495 6.763904-15.897677 1.289536-13.372281-7.342964.176572-.601646.488654-1.170438.901341-1.642721 5.927495-6.763904 15.897677-1.289536 13.374334 7.342964-.176572.601646-.488654 1.170438-.903394 1.642721zm76.710453-54.669758-84.563819 24.624389c-2.47612.720744-4.66685 2.188926-6.272428 4.205366l-10.565601 13.264973c-2.523343 3.170451-3.352823 7.371711-2.219474 11.262906l1.525504 5.236174c1.133348 3.891195 4.085803 6.989778 7.917014 8.310115l16.033187 5.519543c2.43711.839841 5.075431.903497 7.549498.182753l84.563819-24.62439c6.61736-1.92609 10.417773-8.852213 8.491902-15.470326l-6.99309-24.018635c-1.925871-6.618113-8.851206-10.421012-15.466512-8.492868z" fill="#245394"/><path d="m242.123375 485.169462 1.001946-.291583c1.020424-.297743 1.675385-.731011 1.968988-1.301856.291549-.566739.342879-1.375779.151934-2.418907l-.114977-.48871c-.203264-.691996-.529718-1.127317-.983468-1.31007-.554355-.221767-1.36125-.178646-2.422738.129365l-.591312.172485zm1.69797 9.384044 1.14772-.334704c1.034797-.30185 1.708236-.761812 2.016211-1.379886.307975-.61602.361358-1.488716.156041-2.616033-.051329-.28953-.112924-.560579-.186838-.80904-.221743-.763865-.531771-1.29775-.934192-1.597546-.525611-.39836-1.31608-.441482-2.367302-.135525l-1.026584.297743zm-3.476013 4.059575-3.722393-20.60999 5.040526-1.468182c.741194-.215607 1.410527-.359345 2.010052-.441481.601578-.078029 1.188784-.073922 1.763671.012321.574887.084189 1.071753.273102 1.492653.566738.418846.28953.788416.720744 1.102551 1.293643.184785.336758.340825.720744.464016 1.145798.088286.30801.1622.628341.217635.971259.4209 2.492829-.305922 4.178672-2.178411 5.055474 2.15172-.250515 3.566353.79056 4.245951 3.12117.082127.281316.149881.581113.20737.895283.37573 2.01028.158094 3.663268-.657014 4.958965-.811001 1.297749-2.161985 2.219726-4.052953 2.772091z" fill="#fffffe"/><path d="m256.288179 481.514408.987574-.287476c.997839-.28953 1.663066-.731011 1.995679-1.326498.332613-.593433.404474-1.42506.215582-2.494882-.047223-.258729-.104711-.49487-.168359-.710477-.180679-.655035-.441431-1.117051-.782257-1.381939-.451697-.357292-1.153881-.402467-2.104497-.133471l-1.219582.355238zm-1.856064 12.995977-3.722393-20.607936 4.980985-1.451755c.843852-.244355 1.597365-.41068 2.262591-.49487.663173-.084189 1.293496-.078029 1.888914.020534.593366.094457 1.106658.29569 1.53577.59754.439378.310064.811001.751545 1.116923 1.324444.188891.347025.342879.743331.464016 1.186866.086233.297743.160147.611914.221742.942511.238168 1.29159.227902 2.4148-.024638 3.369632-.256646.954832-.794576 1.770032-1.617896 2.447654l4.773615 9.207452-3.96672 1.154012-4.155612-8.603752-1.44543.420947 1.679491 9.324496z" fill="#fffffe"/><path d="m271.099731 482.107841 2.43711-.708424-2.706075-7.899435zm-3.617682 8.603752.219689-21.757841 4.340397-1.264896 7.643943 19.468299-3.703914 1.078035-1.587099-4.377851-3.219367.938404.080074 4.81728z" fill="#fffffe"/><path d="m281.663279 486.582202-3.724446-20.609989 2.786148-.811094 6.498276 9.558584-1.964881-10.878921 3.317919-.965098 3.724446 20.607936-2.654746.774132-6.662529-10.215672 2.079859 11.550383z" fill="#fffffe"/><path d="m298.749741 478.584204.86849-.252568c.33056-.09651.613897-.207394.852064-.332651.238168-.125258.433219-.252569.589259-.381933.151935-.127311.271019-.29569.357252-.503083.082126-.207394.141668-.396307.180678-.568793.036957-.172485.043117-.41068.020532-.71253-.022585-.303903-.049276-.568792-.080074-.794666-.030797-.225874-.086233-.546205-.1622-.960992l-1.463908-8.129416c-.082127-.455855-.170413-.854215-.268965-1.190973-.073914-.223821-.145775-.420947-.211477-.593433-.178625-.435321-.459909-.70637-.845905-.813147-.383942-.106777-.942404-.053388-1.673331.160166l-.843852.246408zm-3.482173 4.036987-3.724446-20.609989 4.824944-1.404527c1.254486-.365505 2.322133-.546205 3.202942-.546205s1.622002.19918 2.221527.595487c.599525.39836 1.073807.952778 1.420792 1.673522.178626.373719.340826.80904.484548 1.299803.133456.457908.25254.971259.357251 1.542104l1.340719 7.435367c.287443 1.589332.326453 2.917883.110871 3.983598-.211477 1.065716-.7453 1.979479-1.601471 2.743345-.854118.763865-2.088072 1.379885-3.705968 1.850114z" fill="#fffffe"/><path d="m219.669933 498.641829c-.20737.344971-.45375.663248-.741194.952778 1.209316 1.833687 1.845798 4.486682 1.61379 7.137623-.127296 1.451755-.895181 3.328564-1.868383 4.794692-.644694.969206-1.451589 1.675576-1.960775 2.269009.361358.168379.722715.347025 1.086126.51951.455803-.554418 1.184678-1.184812 1.778043-2.080095 1.0697-1.613974 1.98952-3.743351 2.133241-5.402499.223796-2.570859-.36957-5.882995-2.040848-8.191018" fill="#fffffe"/><path d="m292.062573 447.501867c-1.381781-1.794672-4.295226-1.710483-6.091748-.950724-1.449537.613967-1.533716 2.190979-1.741086 4.499002-.139616 1.558532-.205317 3.028767.205316 3.505156 1.856064 1.363459 1.911499-3.848074 2.217421-5.164304 0 0-.714502 5.501062.254593 5.975398 1.815001.829574 1.747246-4.256701 1.952563-5.52365-.33672 1.205347-.373677 3.437394-.12935 3.767992.012319.983579.761725.790559.944457.679675.925979-.560578.921873-4.722823.921873-4.722823 0 .739225-.570781 3.459982.62211 2.905563.776097-.361398.821267-1.540051.971148-2.170445.29155-1.211507.184785-2.394266-.127297-2.80084" fill="#e77f66"/><path d="m212.853416 471.688882c1.888914-.078029 4.186409.281316 6.132812.281316.889021 0 1.806787-.129364 2.687596-.180699.556409-.032855 1.689757-.221767 2.014158.400413.357251.681729-.759672.926084-1.19905 1.020541-.636482.139631-1.952563.053388-2.073699.903496-.17452 1.238201 2.141453 1.568799 3.044847 1.963052.83564.367559 3.055114 1.149905 1.601471 1.969212-.981414.552365-3.044848-.708424-3.878434-1.045181 1.096392.303903 2.053168.702263 3.034582 1.264895.568728.326491 1.687704.778239 1.687704 1.416847 0 .936351-2.073699.375772-2.584938.154005-1.219582-.529778-1.463909-.667356-2.307761-1.277216.870543.462016 4.067326 1.81726 3.022263 2.924044-.640588.675569-3.13724-1.225881-4.133026-1.630401.548195.505137 2.186623.770026 2.053167 1.837794-.067754.535938-.995786.108831-1.43927-.133471-.626216-.340864-1.186731-.839841-1.817054-1.137584-.49276-.236141-.821267-.525671-1.35509-.90555-1.129243-.80288-2.155826-.9959-3.133134-2.043135-.915713-.979472-1.769831-1.969211-2.718394-2.778252 1.819106-.671462-.034904-2.02876 1.36125-3.004126" fill="#e77f66"/><path d="m215.61698 471.189906-2.679384 6.191005s-27.654116-8.973364-26.356514-16.234191c1.137455-6.375812 17.22813-27.735293 20.73494-28.501211 4.709967-1.030808 6.596828 10.199244 3.890753 12.920001-5.705753 5.739257-13.846563 13.813231-13.17723 15.113034s17.587435 10.511362 17.587435 10.511362" fill="#fffffe"/><path d="m84.5550711 326.334759c-6.6748483 0-12.0828921-5.408659-12.0828921-12.082213 0-6.673555 5.4080438-12.084267 12.0828921-12.084267 6.6707419 0 12.0808389 5.410712 12.0808389 12.084267 0 6.673554-5.410097 12.082213-12.0808389 12.082213zm22.8599699-9.057553c.129349-.991793.219688-1.99796.219688-3.02466 0-1.028754-.090339-2.032868-.219688-3.02466l-4.662744-.731011c-.145775-.712531-.344933-1.404527-.570781-2.086256l3.697755-2.983592c-.780204-1.885023-1.815-3.632467-3.040741-5.225907l-4.4245768 1.706377c-.4763349-.533885-.9834673-1.041075-1.5172909-1.517464l1.7061823-4.42508c-1.5932581-1.22588-3.3405038-2.260795-5.2253118-3.041087l-2.9832527 3.698176c-.6816517-.225875-1.3735692-.425055-2.0860184-.570846l-.7309277-4.663275c-.99168-.129364-1.9956791-.219713-3.0243161-.219713-1.0265839 0-2.0305829.090349-3.024316.219713l-.7288746 4.663275c-.7124492.145791-1.4064199.344971-2.0860184.570846l-2.9832527-3.698176c-1.884808.780292-3.6320537 1.815207-5.2253119 3.041087l1.7061824 4.42508c-.5358768.476389-1.040956.983579-1.5172909 1.517464l-4.4245765-1.706377c-1.2257411 1.59344-2.2605376 3.340884-3.0407414 5.225907l3.6957019 2.983592c-.2237953.681729-.4229525 1.373725-.5707806 2.086256l-4.6606907.731011c-.1314028.991792-.219689 1.995906-.219689 3.02466 0 1.0267.0882862 2.032867.219689 3.02466l4.6606907.728957c.1478281.714584.3469853 1.40658.5707806 2.086256l-3.6957019 2.985646c.7802038 1.882969 1.8150003 3.630413 3.0407414 5.223853l4.4245765-1.706377c.4763349.533885.9814141 1.041075 1.5172909 1.517464l-1.7061824 4.42508c1.5932582 1.225881 3.3405039 2.262848 5.2253119 3.043141l2.9832527-3.698176c.6795985.225874 1.3735692.423001 2.0860184.570845l.7288746 4.661222c.9937331.129364 1.9977321.221767 3.024316.221767 1.028637 0 2.0326361-.092403 3.0243161-.221767l.7309277-4.661222c.7124492-.147844 1.4043667-.347024 2.0860184-.570845l2.9832527 3.698176c1.884808-.780293 3.6320537-1.81726 5.2253118-3.043141l-1.7061823-4.42508c.5338236-.476389 1.040956-.983579 1.5172909-1.517464l4.4245768 1.706377c1.225741-1.59344 2.260537-3.340884 3.040741-5.223853l-3.697755-2.985646c.225848-.679676.425006-1.371672.570781-2.086256z" fill="#eb8e3e"/><path d="m84.5530179 322.700239c-4.6647971 0-8.446732-3.782365-8.446732-8.447693 0-4.667382 3.7819349-8.447694 8.446732-8.447694 4.6668502 0 8.4487852 3.780312 8.4487852 8.447694 0 4.665328-3.781935 8.447693-8.4487852 8.447693zm.0020532-22.037104c-7.5043281 0-13.587864 6.084229-13.587864 13.589411 0 7.503128 6.0835359 13.587357 13.587864 13.587357 7.5022748 0 13.5858108-6.084229 13.5858108-13.587357 0-7.505182-6.083536-13.589411-13.5858108-13.589411z" fill="#0c0a21"/><path d="m683.41482 112.8611c-6.672795 0-12.082892-5.40866-12.082892-12.082214 0-6.6735546 5.410097-12.0842672 12.082892-12.0842672s12.082892 5.4107126 12.082892 12.0842672c0 6.673554-5.410097 12.082214-12.082892 12.082214zm22.862023-9.057554c.129349-.991793.219689-1.997959.219689-3.02466 0-1.0287542-.09034-2.0328675-.219689-3.0246604l-4.662744-.7310108c-.145775-.7125303-.344932-1.4045266-.570781-2.0862558l3.697755-2.9835922c-.780203-1.8850225-1.815-3.6324671-3.042794-5.2259065l-4.422524 1.7084299c-.478388-.5359377-.983467-1.0431279-1.519344-1.519517l1.708236-4.4230265c-1.595311-1.2279341-3.342557-2.2628484-5.225312-3.0431409l-2.985306 3.6981759c-.679598-.2258742-1.371516-.4250541-2.083965-.5708456l-.730928-4.6612211c-.99168-.1314177-1.997732-.2217673-3.024316-.2217673-1.028637 0-2.032636.0903496-3.024316.2217673l-.730928 4.6612211c-.712449.1457915-1.404366.3449714-2.086018.5708456l-2.983253-3.6981759c-1.884808.7802925-3.63 1.8152068-5.225312 3.0431409l1.708236 4.4230265c-.535877.4763891-1.043009.9835793-1.519344 1.519517l-4.422523-1.7084299c-1.227795 1.5934394-2.262591 3.340884-3.042795 5.2259065l3.697755 2.9835922c-.225848.6817292-.425006 1.3737255-.570781 2.0862558l-4.662743.7310108c-.12935.9917929-.219689 1.9959062-.219689 3.0246604 0 1.026701.090339 2.032867.219689 3.02466l4.662743.728958c.145775.714583.344933 1.40658.570781 2.086255l-3.697755 2.985646c.780204 1.882969 1.815 3.630414 3.042795 5.225906l4.422523-1.70843c.478388.535938.983467 1.041075 1.519344 1.517464l-1.708236 4.42508c1.595312 1.227934 3.340504 2.262848 5.225312 3.043141l2.983253-3.698176c.681652.225874 1.373569.425054 2.086018.570846l.730928 4.661221c.99168.131417 1.995679.221767 3.024316.221767 1.026584 0 2.032636-.09035 3.024316-.221767l.730928-4.661221c.712449-.145792 1.404367-.344972 2.083965-.570846l2.985306 3.698176c1.882755-.780293 3.630001-1.815207 5.225312-3.043141l-1.708236-4.42508c.535877-.476389 1.040956-.981526 1.519344-1.517464l4.422524 1.70843c1.227794-1.595492 2.262591-3.342937 3.042794-5.225906l-3.697755-2.985646c.225849-.679675.425006-1.371672.570781-2.086255z" fill="#eb8e3e"/><path d="m683.41482 109.226579c-4.664797 0-8.446732-3.782365-8.446732-8.447693 0-4.6653281 3.781935-8.4476934 8.446732-8.4476934s8.446732 3.7823653 8.446732 8.4476934c0 4.665328-3.781935 8.447693-8.446732 8.447693zm0-22.0371034c-7.504328 0-13.587864 6.0842283-13.587864 13.5894104 0 7.505182 6.083536 13.587357 13.587864 13.587357s13.585811-6.082175 13.585811-13.587357c0-7.5051821-6.081483-13.5894104-13.585811-13.5894104z" fill="#0c0a21"/><path d="m420.933752 70.5384439c-6.837049-2.4476545-10.397241-9.9754239-7.947812-16.8132504 2.447376-6.83988 9.972235-10.3984246 16.811337-7.9507701 6.837049 2.4476544 10.395188 9.9754238 7.947812 16.8132504-2.447376 6.8378265-9.974288 10.3984245-16.811337 7.9507701zm26.746616-.8973364c.496867-.9692055.958829-1.9651051 1.334559-3.0185.377783-1.0533949.652907-2.1150034.882862-3.1786654l-4.508756-2.4599748c.112924-.7843993.1622-1.5667452.180679-2.3470378l4.884486-1.7002163c-.108818-2.2176735-.529718-4.3881187-1.201104-6.4702677l-5.15961.1252575c-.29155-.7227973-.624163-1.427114-.99784-2.1108966l3.371302-3.9076229c-1.182625-1.841901-2.593151-3.5441707-4.237738-5.0349401l-4.414311 2.6940626c-.613897-.4784425-1.250379-.936351-1.927924-1.3490847l.962935-5.0452072c-.969095-.4969231-1.964881-.956885-3.018156-1.3347109-1.053275-.3778258-2.116816-.6529816-3.180357-.8829626l-2.457642 4.5092694c-.78431-.112937-1.566567-.1622187-2.346771-.1806993l-1.702076-4.8829884c-2.217421.1067768-4.385566.5277241-6.469531 1.1991864l.127296 5.1601976c-.722715.291583-1.426951.6262874-2.112709.9979531l-3.907179-3.3716851c-1.841691 1.1827592-3.541714 2.5954994-5.032314 4.2382205l2.693756 4.4148129c-.480441.613967-.938297 1.2505214-1.348931 1.9281439l-5.046686-.9609919c-.496867.9671521-.956776 1.9651052-1.334559 3.0185001-.37573 1.0513415-.652907 2.1150034-.882862 3.1786653l4.508756 2.4599748c-.110871.7843994-.160147 1.5646919-.178625 2.3449844l-4.884486 1.7022697c.108817 2.2176735.527664 4.3881188 1.201103 6.4702677l5.157557-.1273108c.293603.7248506.626216 1.4271139.999893 2.11295l-3.371302 3.9076228c1.182625 1.841901 2.593151 3.5421173 4.237738 5.0349401l4.414311-2.696116c.613897.480496 1.250379.9384045 1.925871 1.3490847l-.960882 5.0472606c.969095.4969231 1.964881.956885 3.018156 1.3347109s2.114763.6529816 3.180357.8829626l2.457642-4.5092694c.78431.1108837 1.566567.1622187 2.346771.1806993l1.700023 4.8829885c2.217421-.1088303 4.387619-.5277242 6.469531-1.2012398l-.125243-5.1581443c.722715-.2936364 1.426951-.6262874 2.110656-.9979531l3.907178 3.3716851c1.841692-1.1848126 3.543768-2.5954993 5.034368-4.2382204l-2.693756-4.4168664c.480441-.613967.936244-1.248468 1.348931-1.9260905z" fill="#245394"/><path d="m422.266258 66.8135738c-4.779775-1.7125368-7.268214-6.9754045-5.555872-11.7557229 1.710289-4.7823717 6.972558-7.2690408 11.752332-5.5585575 4.781828 1.7125368 7.270267 6.9754045 5.557925 11.7557229-1.710289 4.7803184-6.974611 7.2690408-11.754385 5.5585575zm8.083321-22.5812549c-7.689113-2.7515578-16.154323 1.2505215-18.905568 8.9405096-2.753298 7.6899881 1.248326 16.1541086 8.937439 18.9077198 7.689113 2.7515578 16.15227-1.2505214 18.905568-8.9405096 2.751245-7.6899881-1.250379-16.1541085-8.937439-18.9077198z" fill="#0c0a21"/></g></svg>